<?xml version="1.0" encoding="utf-8" standalone="no"?>
<!DOCTYPE svg PUBLIC "-//W3C//DTD SVG 1.1//EN"
  "http://www.w3.org/Graphics/SVG/1.1/DTD/svg11.dtd">
<!-- Created with matplotlib (http://matplotlib.org/) -->
<svg height="288pt" version="1.1" viewBox="0 0 432 288" width="432pt" xmlns="http://www.w3.org/2000/svg" xmlns:xlink="http://www.w3.org/1999/xlink">
 <defs>
  <style type="text/css">
*{stroke-linecap:butt;stroke-linejoin:round;}
  </style>
 </defs>
 <g id="figure_1">
  <g id="patch_1">
   <path d="M 0 288 
L 432 288 
L 432 0 
L 0 0 
z
" style="fill:#ffffff;"/>
  </g>
  <g id="axes_1">
   <g id="patch_2">
    <path d="M 54 252 
L 388.8 252 
L 388.8 34.56 
L 54 34.56 
z
" style="fill:#ffffff;"/>
   </g>
   <g id="matplotlib.axis_1">
    <g id="xtick_1">
     <g id="line2d_1">
      <defs>
       <path d="M 0 0 
L 0 3.5 
" id="mee4d77677d" style="stroke:#000000;stroke-width:0.8;"/>
      </defs>
      <g>
       <use style="stroke:#000000;stroke-width:0.8;" x="69.218182" xlink:href="#mee4d77677d" y="252"/>
      </g>
     </g>
     <g id="text_1">
      <!-- $\mathdefault{10^{-8}}$ -->
      <defs>
       <path d="M 12.40625 8.296875 
L 28.515625 8.296875 
L 28.515625 63.921875 
L 10.984375 60.40625 
L 10.984375 69.390625 
L 28.421875 72.90625 
L 38.28125 72.90625 
L 38.28125 8.296875 
L 54.390625 8.296875 
L 54.390625 0 
L 12.40625 0 
z
" id="DejaVuSans-31"/>
       <path d="M 31.78125 66.40625 
Q 24.171875 66.40625 20.328125 58.90625 
Q 16.5 51.421875 16.5 36.375 
Q 16.5 21.390625 20.328125 13.890625 
Q 24.171875 6.390625 31.78125 6.390625 
Q 39.453125 6.390625 43.28125 13.890625 
Q 47.125 21.390625 47.125 36.375 
Q 47.125 51.421875 43.28125 58.90625 
Q 39.453125 66.40625 31.78125 66.40625 
z
M 31.78125 74.21875 
Q 44.046875 74.21875 50.515625 64.515625 
Q 56.984375 54.828125 56.984375 36.375 
Q 56.984375 17.96875 50.515625 8.265625 
Q 44.046875 -1.421875 31.78125 -1.421875 
Q 19.53125 -1.421875 13.0625 8.265625 
Q 6.59375 17.96875 6.59375 36.375 
Q 6.59375 54.828125 13.0625 64.515625 
Q 19.53125 74.21875 31.78125 74.21875 
z
" id="DejaVuSans-30"/>
       <path d="M 10.59375 35.5 
L 73.1875 35.5 
L 73.1875 27.203125 
L 10.59375 27.203125 
z
" id="DejaVuSans-2212"/>
       <path d="M 31.78125 34.625 
Q 24.75 34.625 20.71875 30.859375 
Q 16.703125 27.09375 16.703125 20.515625 
Q 16.703125 13.921875 20.71875 10.15625 
Q 24.75 6.390625 31.78125 6.390625 
Q 38.8125 6.390625 42.859375 10.171875 
Q 46.921875 13.96875 46.921875 20.515625 
Q 46.921875 27.09375 42.890625 30.859375 
Q 38.875 34.625 31.78125 34.625 
z
M 21.921875 38.8125 
Q 15.578125 40.375 12.03125 44.71875 
Q 8.5 49.078125 8.5 55.328125 
Q 8.5 64.0625 14.71875 69.140625 
Q 20.953125 74.21875 31.78125 74.21875 
Q 42.671875 74.21875 48.875 69.140625 
Q 55.078125 64.0625 55.078125 55.328125 
Q 55.078125 49.078125 51.53125 44.71875 
Q 48 40.375 41.703125 38.8125 
Q 48.828125 37.15625 52.796875 32.3125 
Q 56.78125 27.484375 56.78125 20.515625 
Q 56.78125 9.90625 50.3125 4.234375 
Q 43.84375 -1.421875 31.78125 -1.421875 
Q 19.734375 -1.421875 13.25 4.234375 
Q 6.78125 9.90625 6.78125 20.515625 
Q 6.78125 27.484375 10.78125 32.3125 
Q 14.796875 37.15625 21.921875 38.8125 
z
M 18.3125 54.390625 
Q 18.3125 48.734375 21.84375 45.5625 
Q 25.390625 42.390625 31.78125 42.390625 
Q 38.140625 42.390625 41.71875 45.5625 
Q 45.3125 48.734375 45.3125 54.390625 
Q 45.3125 60.0625 41.71875 63.234375 
Q 38.140625 66.40625 31.78125 66.40625 
Q 25.390625 66.40625 21.84375 63.234375 
Q 18.3125 60.0625 18.3125 54.390625 
z
" id="DejaVuSans-38"/>
      </defs>
      <g transform="translate(57.468182 266.598437)scale(0.1 -0.1)">
       <use transform="translate(0 0.765625)" xlink:href="#DejaVuSans-31"/>
       <use transform="translate(63.623047 0.765625)" xlink:href="#DejaVuSans-30"/>
       <use transform="translate(128.203125 39.046875)scale(0.7)" xlink:href="#DejaVuSans-2212"/>
       <use transform="translate(186.855469 39.046875)scale(0.7)" xlink:href="#DejaVuSans-38"/>
      </g>
     </g>
    </g>
    <g id="xtick_2">
     <g id="line2d_2">
      <g>
       <use style="stroke:#000000;stroke-width:0.8;" x="112.698701" xlink:href="#mee4d77677d" y="252"/>
      </g>
     </g>
     <g id="text_2">
      <!-- $\mathdefault{10^{-7}}$ -->
      <defs>
       <path d="M 8.203125 72.90625 
L 55.078125 72.90625 
L 55.078125 68.703125 
L 28.609375 0 
L 18.3125 0 
L 43.21875 64.59375 
L 8.203125 64.59375 
z
" id="DejaVuSans-37"/>
      </defs>
      <g transform="translate(100.948701 266.598437)scale(0.1 -0.1)">
       <use transform="translate(0 0.684375)" xlink:href="#DejaVuSans-31"/>
       <use transform="translate(63.623047 0.684375)" xlink:href="#DejaVuSans-30"/>
       <use transform="translate(128.203125 38.965625)scale(0.7)" xlink:href="#DejaVuSans-2212"/>
       <use transform="translate(186.855469 38.965625)scale(0.7)" xlink:href="#DejaVuSans-37"/>
      </g>
     </g>
    </g>
    <g id="xtick_3">
     <g id="line2d_3">
      <g>
       <use style="stroke:#000000;stroke-width:0.8;" x="156.179221" xlink:href="#mee4d77677d" y="252"/>
      </g>
     </g>
     <g id="text_3">
      <!-- $\mathdefault{10^{-6}}$ -->
      <defs>
       <path d="M 33.015625 40.375 
Q 26.375 40.375 22.484375 35.828125 
Q 18.609375 31.296875 18.609375 23.390625 
Q 18.609375 15.53125 22.484375 10.953125 
Q 26.375 6.390625 33.015625 6.390625 
Q 39.65625 6.390625 43.53125 10.953125 
Q 47.40625 15.53125 47.40625 23.390625 
Q 47.40625 31.296875 43.53125 35.828125 
Q 39.65625 40.375 33.015625 40.375 
z
M 52.59375 71.296875 
L 52.59375 62.3125 
Q 48.875 64.0625 45.09375 64.984375 
Q 41.3125 65.921875 37.59375 65.921875 
Q 27.828125 65.921875 22.671875 59.328125 
Q 17.53125 52.734375 16.796875 39.40625 
Q 19.671875 43.65625 24.015625 45.921875 
Q 28.375 48.1875 33.59375 48.1875 
Q 44.578125 48.1875 50.953125 41.515625 
Q 57.328125 34.859375 57.328125 23.390625 
Q 57.328125 12.15625 50.6875 5.359375 
Q 44.046875 -1.421875 33.015625 -1.421875 
Q 20.359375 -1.421875 13.671875 8.265625 
Q 6.984375 17.96875 6.984375 36.375 
Q 6.984375 53.65625 15.1875 63.9375 
Q 23.390625 74.21875 37.203125 74.21875 
Q 40.921875 74.21875 44.703125 73.484375 
Q 48.484375 72.75 52.59375 71.296875 
z
" id="DejaVuSans-36"/>
      </defs>
      <g transform="translate(144.429221 266.598437)scale(0.1 -0.1)">
       <use transform="translate(0 0.765625)" xlink:href="#DejaVuSans-31"/>
       <use transform="translate(63.623047 0.765625)" xlink:href="#DejaVuSans-30"/>
       <use transform="translate(128.203125 39.046875)scale(0.7)" xlink:href="#DejaVuSans-2212"/>
       <use transform="translate(186.855469 39.046875)scale(0.7)" xlink:href="#DejaVuSans-36"/>
      </g>
     </g>
    </g>
    <g id="xtick_4">
     <g id="line2d_4">
      <g>
       <use style="stroke:#000000;stroke-width:0.8;" x="199.65974" xlink:href="#mee4d77677d" y="252"/>
      </g>
     </g>
     <g id="text_4">
      <!-- $\mathdefault{10^{-5}}$ -->
      <defs>
       <path d="M 10.796875 72.90625 
L 49.515625 72.90625 
L 49.515625 64.59375 
L 19.828125 64.59375 
L 19.828125 46.734375 
Q 21.96875 47.46875 24.109375 47.828125 
Q 26.265625 48.1875 28.421875 48.1875 
Q 40.625 48.1875 47.75 41.5 
Q 54.890625 34.8125 54.890625 23.390625 
Q 54.890625 11.625 47.5625 5.09375 
Q 40.234375 -1.421875 26.90625 -1.421875 
Q 22.3125 -1.421875 17.546875 -0.640625 
Q 12.796875 0.140625 7.71875 1.703125 
L 7.71875 11.625 
Q 12.109375 9.234375 16.796875 8.0625 
Q 21.484375 6.890625 26.703125 6.890625 
Q 35.15625 6.890625 40.078125 11.328125 
Q 45.015625 15.765625 45.015625 23.390625 
Q 45.015625 31 40.078125 35.4375 
Q 35.15625 39.890625 26.703125 39.890625 
Q 22.75 39.890625 18.8125 39.015625 
Q 14.890625 38.140625 10.796875 36.28125 
z
" id="DejaVuSans-35"/>
      </defs>
      <g transform="translate(187.90974 266.598437)scale(0.1 -0.1)">
       <use transform="translate(0 0.684375)" xlink:href="#DejaVuSans-31"/>
       <use transform="translate(63.623047 0.684375)" xlink:href="#DejaVuSans-30"/>
       <use transform="translate(128.203125 38.965625)scale(0.7)" xlink:href="#DejaVuSans-2212"/>
       <use transform="translate(186.855469 38.965625)scale(0.7)" xlink:href="#DejaVuSans-35"/>
      </g>
     </g>
    </g>
    <g id="xtick_5">
     <g id="line2d_5">
      <g>
       <use style="stroke:#000000;stroke-width:0.8;" x="243.14026" xlink:href="#mee4d77677d" y="252"/>
      </g>
     </g>
     <g id="text_5">
      <!-- $\mathdefault{10^{-4}}$ -->
      <defs>
       <path d="M 37.796875 64.3125 
L 12.890625 25.390625 
L 37.796875 25.390625 
z
M 35.203125 72.90625 
L 47.609375 72.90625 
L 47.609375 25.390625 
L 58.015625 25.390625 
L 58.015625 17.1875 
L 47.609375 17.1875 
L 47.609375 0 
L 37.796875 0 
L 37.796875 17.1875 
L 4.890625 17.1875 
L 4.890625 26.703125 
z
" id="DejaVuSans-34"/>
      </defs>
      <g transform="translate(231.39026 266.598437)scale(0.1 -0.1)">
       <use transform="translate(0 0.684375)" xlink:href="#DejaVuSans-31"/>
       <use transform="translate(63.623047 0.684375)" xlink:href="#DejaVuSans-30"/>
       <use transform="translate(128.203125 38.965625)scale(0.7)" xlink:href="#DejaVuSans-2212"/>
       <use transform="translate(186.855469 38.965625)scale(0.7)" xlink:href="#DejaVuSans-34"/>
      </g>
     </g>
    </g>
    <g id="xtick_6">
     <g id="line2d_6">
      <g>
       <use style="stroke:#000000;stroke-width:0.8;" x="286.620779" xlink:href="#mee4d77677d" y="252"/>
      </g>
     </g>
     <g id="text_6">
      <!-- $\mathdefault{10^{-3}}$ -->
      <defs>
       <path d="M 40.578125 39.3125 
Q 47.65625 37.796875 51.625 33 
Q 55.609375 28.21875 55.609375 21.1875 
Q 55.609375 10.40625 48.1875 4.484375 
Q 40.765625 -1.421875 27.09375 -1.421875 
Q 22.515625 -1.421875 17.65625 -0.515625 
Q 12.796875 0.390625 7.625 2.203125 
L 7.625 11.71875 
Q 11.71875 9.328125 16.59375 8.109375 
Q 21.484375 6.890625 26.8125 6.890625 
Q 36.078125 6.890625 40.9375 10.546875 
Q 45.796875 14.203125 45.796875 21.1875 
Q 45.796875 27.640625 41.28125 31.265625 
Q 36.765625 34.90625 28.71875 34.90625 
L 20.21875 34.90625 
L 20.21875 43.015625 
L 29.109375 43.015625 
Q 36.375 43.015625 40.234375 45.921875 
Q 44.09375 48.828125 44.09375 54.296875 
Q 44.09375 59.90625 40.109375 62.90625 
Q 36.140625 65.921875 28.71875 65.921875 
Q 24.65625 65.921875 20.015625 65.03125 
Q 15.375 64.15625 9.8125 62.3125 
L 9.8125 71.09375 
Q 15.4375 72.65625 20.34375 73.4375 
Q 25.25 74.21875 29.59375 74.21875 
Q 40.828125 74.21875 47.359375 69.109375 
Q 53.90625 64.015625 53.90625 55.328125 
Q 53.90625 49.265625 50.4375 45.09375 
Q 46.96875 40.921875 40.578125 39.3125 
z
" id="DejaVuSans-33"/>
      </defs>
      <g transform="translate(274.870779 266.598437)scale(0.1 -0.1)">
       <use transform="translate(0 0.765625)" xlink:href="#DejaVuSans-31"/>
       <use transform="translate(63.623047 0.765625)" xlink:href="#DejaVuSans-30"/>
       <use transform="translate(128.203125 39.046875)scale(0.7)" xlink:href="#DejaVuSans-2212"/>
       <use transform="translate(186.855469 39.046875)scale(0.7)" xlink:href="#DejaVuSans-33"/>
      </g>
     </g>
    </g>
    <g id="xtick_7">
     <g id="line2d_7">
      <g>
       <use style="stroke:#000000;stroke-width:0.8;" x="330.101299" xlink:href="#mee4d77677d" y="252"/>
      </g>
     </g>
     <g id="text_7">
      <!-- $\mathdefault{10^{-2}}$ -->
      <defs>
       <path d="M 19.1875 8.296875 
L 53.609375 8.296875 
L 53.609375 0 
L 7.328125 0 
L 7.328125 8.296875 
Q 12.9375 14.109375 22.625 23.890625 
Q 32.328125 33.6875 34.8125 36.53125 
Q 39.546875 41.84375 41.421875 45.53125 
Q 43.3125 49.21875 43.3125 52.78125 
Q 43.3125 58.59375 39.234375 62.25 
Q 35.15625 65.921875 28.609375 65.921875 
Q 23.96875 65.921875 18.8125 64.3125 
Q 13.671875 62.703125 7.8125 59.421875 
L 7.8125 69.390625 
Q 13.765625 71.78125 18.9375 73 
Q 24.125 74.21875 28.421875 74.21875 
Q 39.75 74.21875 46.484375 68.546875 
Q 53.21875 62.890625 53.21875 53.421875 
Q 53.21875 48.921875 51.53125 44.890625 
Q 49.859375 40.875 45.40625 35.40625 
Q 44.1875 33.984375 37.640625 27.21875 
Q 31.109375 20.453125 19.1875 8.296875 
z
" id="DejaVuSans-32"/>
      </defs>
      <g transform="translate(318.351299 266.598437)scale(0.1 -0.1)">
       <use transform="translate(0 0.765625)" xlink:href="#DejaVuSans-31"/>
       <use transform="translate(63.623047 0.765625)" xlink:href="#DejaVuSans-30"/>
       <use transform="translate(128.203125 39.046875)scale(0.7)" xlink:href="#DejaVuSans-2212"/>
       <use transform="translate(186.855469 39.046875)scale(0.7)" xlink:href="#DejaVuSans-32"/>
      </g>
     </g>
    </g>
    <g id="xtick_8">
     <g id="line2d_8">
      <g>
       <use style="stroke:#000000;stroke-width:0.8;" x="373.581818" xlink:href="#mee4d77677d" y="252"/>
      </g>
     </g>
     <g id="text_8">
      <!-- $\mathdefault{10^{-1}}$ -->
      <g transform="translate(361.831818 266.598437)scale(0.1 -0.1)">
       <use transform="translate(0 0.684375)" xlink:href="#DejaVuSans-31"/>
       <use transform="translate(63.623047 0.684375)" xlink:href="#DejaVuSans-30"/>
       <use transform="translate(128.203125 38.965625)scale(0.7)" xlink:href="#DejaVuSans-2212"/>
       <use transform="translate(186.855469 38.965625)scale(0.7)" xlink:href="#DejaVuSans-31"/>
      </g>
     </g>
    </g>
    <g id="xtick_9">
     <g id="line2d_9">
      <defs>
       <path d="M 0 0 
L 0 2 
" id="m15a1486b03" style="stroke:#000000;stroke-width:0.6;"/>
      </defs>
      <g>
       <use style="stroke:#000000;stroke-width:0.6;" x="56.129241" xlink:href="#m15a1486b03" y="252"/>
      </g>
     </g>
    </g>
    <g id="xtick_10">
     <g id="line2d_10">
      <g>
       <use style="stroke:#000000;stroke-width:0.6;" x="59.572083" xlink:href="#m15a1486b03" y="252"/>
      </g>
     </g>
    </g>
    <g id="xtick_11">
     <g id="line2d_11">
      <g>
       <use style="stroke:#000000;stroke-width:0.6;" x="62.482964" xlink:href="#m15a1486b03" y="252"/>
      </g>
     </g>
    </g>
    <g id="xtick_12">
     <g id="line2d_12">
      <g>
       <use style="stroke:#000000;stroke-width:0.6;" x="65.004484" xlink:href="#m15a1486b03" y="252"/>
      </g>
     </g>
    </g>
    <g id="xtick_13">
     <g id="line2d_13">
      <g>
       <use style="stroke:#000000;stroke-width:0.6;" x="67.228622" xlink:href="#m15a1486b03" y="252"/>
      </g>
     </g>
    </g>
    <g id="xtick_14">
     <g id="line2d_14">
      <g>
       <use style="stroke:#000000;stroke-width:0.6;" x="82.307122" xlink:href="#m15a1486b03" y="252"/>
      </g>
     </g>
    </g>
    <g id="xtick_15">
     <g id="line2d_15">
      <g>
       <use style="stroke:#000000;stroke-width:0.6;" x="89.963662" xlink:href="#m15a1486b03" y="252"/>
      </g>
     </g>
    </g>
    <g id="xtick_16">
     <g id="line2d_16">
      <g>
       <use style="stroke:#000000;stroke-width:0.6;" x="95.396063" xlink:href="#m15a1486b03" y="252"/>
      </g>
     </g>
    </g>
    <g id="xtick_17">
     <g id="line2d_17">
      <g>
       <use style="stroke:#000000;stroke-width:0.6;" x="99.609761" xlink:href="#m15a1486b03" y="252"/>
      </g>
     </g>
    </g>
    <g id="xtick_18">
     <g id="line2d_18">
      <g>
       <use style="stroke:#000000;stroke-width:0.6;" x="103.052602" xlink:href="#m15a1486b03" y="252"/>
      </g>
     </g>
    </g>
    <g id="xtick_19">
     <g id="line2d_19">
      <g>
       <use style="stroke:#000000;stroke-width:0.6;" x="105.963484" xlink:href="#m15a1486b03" y="252"/>
      </g>
     </g>
    </g>
    <g id="xtick_20">
     <g id="line2d_20">
      <g>
       <use style="stroke:#000000;stroke-width:0.6;" x="108.485004" xlink:href="#m15a1486b03" y="252"/>
      </g>
     </g>
    </g>
    <g id="xtick_21">
     <g id="line2d_21">
      <g>
       <use style="stroke:#000000;stroke-width:0.6;" x="110.709142" xlink:href="#m15a1486b03" y="252"/>
      </g>
     </g>
    </g>
    <g id="xtick_22">
     <g id="line2d_22">
      <g>
       <use style="stroke:#000000;stroke-width:0.6;" x="125.787642" xlink:href="#m15a1486b03" y="252"/>
      </g>
     </g>
    </g>
    <g id="xtick_23">
     <g id="line2d_23">
      <g>
       <use style="stroke:#000000;stroke-width:0.6;" x="133.444181" xlink:href="#m15a1486b03" y="252"/>
      </g>
     </g>
    </g>
    <g id="xtick_24">
     <g id="line2d_24">
      <g>
       <use style="stroke:#000000;stroke-width:0.6;" x="138.876582" xlink:href="#m15a1486b03" y="252"/>
      </g>
     </g>
    </g>
    <g id="xtick_25">
     <g id="line2d_25">
      <g>
       <use style="stroke:#000000;stroke-width:0.6;" x="143.09028" xlink:href="#m15a1486b03" y="252"/>
      </g>
     </g>
    </g>
    <g id="xtick_26">
     <g id="line2d_26">
      <g>
       <use style="stroke:#000000;stroke-width:0.6;" x="146.533122" xlink:href="#m15a1486b03" y="252"/>
      </g>
     </g>
    </g>
    <g id="xtick_27">
     <g id="line2d_27">
      <g>
       <use style="stroke:#000000;stroke-width:0.6;" x="149.444003" xlink:href="#m15a1486b03" y="252"/>
      </g>
     </g>
    </g>
    <g id="xtick_28">
     <g id="line2d_28">
      <g>
       <use style="stroke:#000000;stroke-width:0.6;" x="151.965523" xlink:href="#m15a1486b03" y="252"/>
      </g>
     </g>
    </g>
    <g id="xtick_29">
     <g id="line2d_29">
      <g>
       <use style="stroke:#000000;stroke-width:0.6;" x="154.189661" xlink:href="#m15a1486b03" y="252"/>
      </g>
     </g>
    </g>
    <g id="xtick_30">
     <g id="line2d_30">
      <g>
       <use style="stroke:#000000;stroke-width:0.6;" x="169.268161" xlink:href="#m15a1486b03" y="252"/>
      </g>
     </g>
    </g>
    <g id="xtick_31">
     <g id="line2d_31">
      <g>
       <use style="stroke:#000000;stroke-width:0.6;" x="176.924701" xlink:href="#m15a1486b03" y="252"/>
      </g>
     </g>
    </g>
    <g id="xtick_32">
     <g id="line2d_32">
      <g>
       <use style="stroke:#000000;stroke-width:0.6;" x="182.357102" xlink:href="#m15a1486b03" y="252"/>
      </g>
     </g>
    </g>
    <g id="xtick_33">
     <g id="line2d_33">
      <g>
       <use style="stroke:#000000;stroke-width:0.6;" x="186.5708" xlink:href="#m15a1486b03" y="252"/>
      </g>
     </g>
    </g>
    <g id="xtick_34">
     <g id="line2d_34">
      <g>
       <use style="stroke:#000000;stroke-width:0.6;" x="190.013641" xlink:href="#m15a1486b03" y="252"/>
      </g>
     </g>
    </g>
    <g id="xtick_35">
     <g id="line2d_35">
      <g>
       <use style="stroke:#000000;stroke-width:0.6;" x="192.924523" xlink:href="#m15a1486b03" y="252"/>
      </g>
     </g>
    </g>
    <g id="xtick_36">
     <g id="line2d_36">
      <g>
       <use style="stroke:#000000;stroke-width:0.6;" x="195.446043" xlink:href="#m15a1486b03" y="252"/>
      </g>
     </g>
    </g>
    <g id="xtick_37">
     <g id="line2d_37">
      <g>
       <use style="stroke:#000000;stroke-width:0.6;" x="197.670181" xlink:href="#m15a1486b03" y="252"/>
      </g>
     </g>
    </g>
    <g id="xtick_38">
     <g id="line2d_38">
      <g>
       <use style="stroke:#000000;stroke-width:0.6;" x="212.748681" xlink:href="#m15a1486b03" y="252"/>
      </g>
     </g>
    </g>
    <g id="xtick_39">
     <g id="line2d_39">
      <g>
       <use style="stroke:#000000;stroke-width:0.6;" x="220.40522" xlink:href="#m15a1486b03" y="252"/>
      </g>
     </g>
    </g>
    <g id="xtick_40">
     <g id="line2d_40">
      <g>
       <use style="stroke:#000000;stroke-width:0.6;" x="225.837621" xlink:href="#m15a1486b03" y="252"/>
      </g>
     </g>
    </g>
    <g id="xtick_41">
     <g id="line2d_41">
      <g>
       <use style="stroke:#000000;stroke-width:0.6;" x="230.051319" xlink:href="#m15a1486b03" y="252"/>
      </g>
     </g>
    </g>
    <g id="xtick_42">
     <g id="line2d_42">
      <g>
       <use style="stroke:#000000;stroke-width:0.6;" x="233.494161" xlink:href="#m15a1486b03" y="252"/>
      </g>
     </g>
    </g>
    <g id="xtick_43">
     <g id="line2d_43">
      <g>
       <use style="stroke:#000000;stroke-width:0.6;" x="236.405042" xlink:href="#m15a1486b03" y="252"/>
      </g>
     </g>
    </g>
    <g id="xtick_44">
     <g id="line2d_44">
      <g>
       <use style="stroke:#000000;stroke-width:0.6;" x="238.926562" xlink:href="#m15a1486b03" y="252"/>
      </g>
     </g>
    </g>
    <g id="xtick_45">
     <g id="line2d_45">
      <g>
       <use style="stroke:#000000;stroke-width:0.6;" x="241.1507" xlink:href="#m15a1486b03" y="252"/>
      </g>
     </g>
    </g>
    <g id="xtick_46">
     <g id="line2d_46">
      <g>
       <use style="stroke:#000000;stroke-width:0.6;" x="256.2292" xlink:href="#m15a1486b03" y="252"/>
      </g>
     </g>
    </g>
    <g id="xtick_47">
     <g id="line2d_47">
      <g>
       <use style="stroke:#000000;stroke-width:0.6;" x="263.88574" xlink:href="#m15a1486b03" y="252"/>
      </g>
     </g>
    </g>
    <g id="xtick_48">
     <g id="line2d_48">
      <g>
       <use style="stroke:#000000;stroke-width:0.6;" x="269.318141" xlink:href="#m15a1486b03" y="252"/>
      </g>
     </g>
    </g>
    <g id="xtick_49">
     <g id="line2d_49">
      <g>
       <use style="stroke:#000000;stroke-width:0.6;" x="273.531839" xlink:href="#m15a1486b03" y="252"/>
      </g>
     </g>
    </g>
    <g id="xtick_50">
     <g id="line2d_50">
      <g>
       <use style="stroke:#000000;stroke-width:0.6;" x="276.97468" xlink:href="#m15a1486b03" y="252"/>
      </g>
     </g>
    </g>
    <g id="xtick_51">
     <g id="line2d_51">
      <g>
       <use style="stroke:#000000;stroke-width:0.6;" x="279.885562" xlink:href="#m15a1486b03" y="252"/>
      </g>
     </g>
    </g>
    <g id="xtick_52">
     <g id="line2d_52">
      <g>
       <use style="stroke:#000000;stroke-width:0.6;" x="282.407082" xlink:href="#m15a1486b03" y="252"/>
      </g>
     </g>
    </g>
    <g id="xtick_53">
     <g id="line2d_53">
      <g>
       <use style="stroke:#000000;stroke-width:0.6;" x="284.63122" xlink:href="#m15a1486b03" y="252"/>
      </g>
     </g>
    </g>
    <g id="xtick_54">
     <g id="line2d_54">
      <g>
       <use style="stroke:#000000;stroke-width:0.6;" x="299.70972" xlink:href="#m15a1486b03" y="252"/>
      </g>
     </g>
    </g>
    <g id="xtick_55">
     <g id="line2d_55">
      <g>
       <use style="stroke:#000000;stroke-width:0.6;" x="307.366259" xlink:href="#m15a1486b03" y="252"/>
      </g>
     </g>
    </g>
    <g id="xtick_56">
     <g id="line2d_56">
      <g>
       <use style="stroke:#000000;stroke-width:0.6;" x="312.79866" xlink:href="#m15a1486b03" y="252"/>
      </g>
     </g>
    </g>
    <g id="xtick_57">
     <g id="line2d_57">
      <g>
       <use style="stroke:#000000;stroke-width:0.6;" x="317.012358" xlink:href="#m15a1486b03" y="252"/>
      </g>
     </g>
    </g>
    <g id="xtick_58">
     <g id="line2d_58">
      <g>
       <use style="stroke:#000000;stroke-width:0.6;" x="320.4552" xlink:href="#m15a1486b03" y="252"/>
      </g>
     </g>
    </g>
    <g id="xtick_59">
     <g id="line2d_59">
      <g>
       <use style="stroke:#000000;stroke-width:0.6;" x="323.366081" xlink:href="#m15a1486b03" y="252"/>
      </g>
     </g>
    </g>
    <g id="xtick_60">
     <g id="line2d_60">
      <g>
       <use style="stroke:#000000;stroke-width:0.6;" x="325.887601" xlink:href="#m15a1486b03" y="252"/>
      </g>
     </g>
    </g>
    <g id="xtick_61">
     <g id="line2d_61">
      <g>
       <use style="stroke:#000000;stroke-width:0.6;" x="328.111739" xlink:href="#m15a1486b03" y="252"/>
      </g>
     </g>
    </g>
    <g id="xtick_62">
     <g id="line2d_62">
      <g>
       <use style="stroke:#000000;stroke-width:0.6;" x="343.190239" xlink:href="#m15a1486b03" y="252"/>
      </g>
     </g>
    </g>
    <g id="xtick_63">
     <g id="line2d_63">
      <g>
       <use style="stroke:#000000;stroke-width:0.6;" x="350.846779" xlink:href="#m15a1486b03" y="252"/>
      </g>
     </g>
    </g>
    <g id="xtick_64">
     <g id="line2d_64">
      <g>
       <use style="stroke:#000000;stroke-width:0.6;" x="356.27918" xlink:href="#m15a1486b03" y="252"/>
      </g>
     </g>
    </g>
    <g id="xtick_65">
     <g id="line2d_65">
      <g>
       <use style="stroke:#000000;stroke-width:0.6;" x="360.492878" xlink:href="#m15a1486b03" y="252"/>
      </g>
     </g>
    </g>
    <g id="xtick_66">
     <g id="line2d_66">
      <g>
       <use style="stroke:#000000;stroke-width:0.6;" x="363.935719" xlink:href="#m15a1486b03" y="252"/>
      </g>
     </g>
    </g>
    <g id="xtick_67">
     <g id="line2d_67">
      <g>
       <use style="stroke:#000000;stroke-width:0.6;" x="366.8466" xlink:href="#m15a1486b03" y="252"/>
      </g>
     </g>
    </g>
    <g id="xtick_68">
     <g id="line2d_68">
      <g>
       <use style="stroke:#000000;stroke-width:0.6;" x="369.36812" xlink:href="#m15a1486b03" y="252"/>
      </g>
     </g>
    </g>
    <g id="xtick_69">
     <g id="line2d_69">
      <g>
       <use style="stroke:#000000;stroke-width:0.6;" x="371.592259" xlink:href="#m15a1486b03" y="252"/>
      </g>
     </g>
    </g>
    <g id="xtick_70">
     <g id="line2d_70">
      <g>
       <use style="stroke:#000000;stroke-width:0.6;" x="386.670759" xlink:href="#m15a1486b03" y="252"/>
      </g>
     </g>
    </g>
    <g id="text_9">
     <!-- Delta t -->
     <defs>
      <path d="M 19.671875 64.796875 
L 19.671875 8.109375 
L 31.59375 8.109375 
Q 46.6875 8.109375 53.6875 14.9375 
Q 60.6875 21.78125 60.6875 36.53125 
Q 60.6875 51.171875 53.6875 57.984375 
Q 46.6875 64.796875 31.59375 64.796875 
z
M 9.8125 72.90625 
L 30.078125 72.90625 
Q 51.265625 72.90625 61.171875 64.09375 
Q 71.09375 55.28125 71.09375 36.53125 
Q 71.09375 17.671875 61.125 8.828125 
Q 51.171875 0 30.078125 0 
L 9.8125 0 
z
" id="DejaVuSans-44"/>
      <path d="M 56.203125 29.59375 
L 56.203125 25.203125 
L 14.890625 25.203125 
Q 15.484375 15.921875 20.484375 11.0625 
Q 25.484375 6.203125 34.421875 6.203125 
Q 39.59375 6.203125 44.453125 7.46875 
Q 49.3125 8.734375 54.109375 11.28125 
L 54.109375 2.78125 
Q 49.265625 0.734375 44.1875 -0.34375 
Q 39.109375 -1.421875 33.890625 -1.421875 
Q 20.796875 -1.421875 13.15625 6.1875 
Q 5.515625 13.8125 5.515625 26.8125 
Q 5.515625 40.234375 12.765625 48.109375 
Q 20.015625 56 32.328125 56 
Q 43.359375 56 49.78125 48.890625 
Q 56.203125 41.796875 56.203125 29.59375 
z
M 47.21875 32.234375 
Q 47.125 39.59375 43.09375 43.984375 
Q 39.0625 48.390625 32.421875 48.390625 
Q 24.90625 48.390625 20.390625 44.140625 
Q 15.875 39.890625 15.1875 32.171875 
z
" id="DejaVuSans-65"/>
      <path d="M 9.421875 75.984375 
L 18.40625 75.984375 
L 18.40625 0 
L 9.421875 0 
z
" id="DejaVuSans-6c"/>
      <path d="M 18.3125 70.21875 
L 18.3125 54.6875 
L 36.8125 54.6875 
L 36.8125 47.703125 
L 18.3125 47.703125 
L 18.3125 18.015625 
Q 18.3125 11.328125 20.140625 9.421875 
Q 21.96875 7.515625 27.59375 7.515625 
L 36.8125 7.515625 
L 36.8125 0 
L 27.59375 0 
Q 17.1875 0 13.234375 3.875 
Q 9.28125 7.765625 9.28125 18.015625 
L 9.28125 47.703125 
L 2.6875 47.703125 
L 2.6875 54.6875 
L 9.28125 54.6875 
L 9.28125 70.21875 
z
" id="DejaVuSans-74"/>
      <path d="M 34.28125 27.484375 
Q 23.390625 27.484375 19.1875 25 
Q 14.984375 22.515625 14.984375 16.5 
Q 14.984375 11.71875 18.140625 8.90625 
Q 21.296875 6.109375 26.703125 6.109375 
Q 34.1875 6.109375 38.703125 11.40625 
Q 43.21875 16.703125 43.21875 25.484375 
L 43.21875 27.484375 
z
M 52.203125 31.203125 
L 52.203125 0 
L 43.21875 0 
L 43.21875 8.296875 
Q 40.140625 3.328125 35.546875 0.953125 
Q 30.953125 -1.421875 24.3125 -1.421875 
Q 15.921875 -1.421875 10.953125 3.296875 
Q 6 8.015625 6 15.921875 
Q 6 25.140625 12.171875 29.828125 
Q 18.359375 34.515625 30.609375 34.515625 
L 43.21875 34.515625 
L 43.21875 35.40625 
Q 43.21875 41.609375 39.140625 45 
Q 35.0625 48.390625 27.6875 48.390625 
Q 23 48.390625 18.546875 47.265625 
Q 14.109375 46.140625 10.015625 43.890625 
L 10.015625 52.203125 
Q 14.9375 54.109375 19.578125 55.046875 
Q 24.21875 56 28.609375 56 
Q 40.484375 56 46.34375 49.84375 
Q 52.203125 43.703125 52.203125 31.203125 
z
" id="DejaVuSans-61"/>
      <path id="DejaVuSans-20"/>
     </defs>
     <g transform="translate(204.510938 280.276563)scale(0.1 -0.1)">
      <use xlink:href="#DejaVuSans-44"/>
      <use x="77.001953" xlink:href="#DejaVuSans-65"/>
      <use x="138.525391" xlink:href="#DejaVuSans-6c"/>
      <use x="166.308594" xlink:href="#DejaVuSans-74"/>
      <use x="205.517578" xlink:href="#DejaVuSans-61"/>
      <use x="266.796875" xlink:href="#DejaVuSans-20"/>
      <use x="298.583984" xlink:href="#DejaVuSans-74"/>
     </g>
    </g>
   </g>
   <g id="matplotlib.axis_2">
    <g id="ytick_1">
     <g id="line2d_71">
      <defs>
       <path d="M 0 0 
L -3.5 0 
" id="m92a3a7df41" style="stroke:#000000;stroke-width:0.8;"/>
      </defs>
      <g>
       <use style="stroke:#000000;stroke-width:0.8;" x="54" xlink:href="#m92a3a7df41" y="236.281704"/>
      </g>
     </g>
     <g id="text_10">
      <!-- $\mathdefault{10^{-14}}$ -->
      <g transform="translate(19.1 240.080923)scale(0.1 -0.1)">
       <use transform="translate(0 0.684375)" xlink:href="#DejaVuSans-31"/>
       <use transform="translate(63.623047 0.684375)" xlink:href="#DejaVuSans-30"/>
       <use transform="translate(128.203125 38.965625)scale(0.7)" xlink:href="#DejaVuSans-2212"/>
       <use transform="translate(186.855469 38.965625)scale(0.7)" xlink:href="#DejaVuSans-31"/>
       <use transform="translate(231.391602 38.965625)scale(0.7)" xlink:href="#DejaVuSans-34"/>
      </g>
     </g>
    </g>
    <g id="ytick_2">
     <g id="line2d_72">
      <g>
       <use style="stroke:#000000;stroke-width:0.8;" x="54" xlink:href="#m92a3a7df41" y="206.982952"/>
      </g>
     </g>
     <g id="text_11">
      <!-- $\mathdefault{10^{-12}}$ -->
      <g transform="translate(19.1 210.782171)scale(0.1 -0.1)">
       <use transform="translate(0 0.765625)" xlink:href="#DejaVuSans-31"/>
       <use transform="translate(63.623047 0.765625)" xlink:href="#DejaVuSans-30"/>
       <use transform="translate(128.203125 39.046875)scale(0.7)" xlink:href="#DejaVuSans-2212"/>
       <use transform="translate(186.855469 39.046875)scale(0.7)" xlink:href="#DejaVuSans-31"/>
       <use transform="translate(231.391602 39.046875)scale(0.7)" xlink:href="#DejaVuSans-32"/>
      </g>
     </g>
    </g>
    <g id="ytick_3">
     <g id="line2d_73">
      <g>
       <use style="stroke:#000000;stroke-width:0.8;" x="54" xlink:href="#m92a3a7df41" y="177.684201"/>
      </g>
     </g>
     <g id="text_12">
      <!-- $\mathdefault{10^{-10}}$ -->
      <g transform="translate(19.1 181.48342)scale(0.1 -0.1)">
       <use transform="translate(0 0.765625)" xlink:href="#DejaVuSans-31"/>
       <use transform="translate(63.623047 0.765625)" xlink:href="#DejaVuSans-30"/>
       <use transform="translate(128.203125 39.046875)scale(0.7)" xlink:href="#DejaVuSans-2212"/>
       <use transform="translate(186.855469 39.046875)scale(0.7)" xlink:href="#DejaVuSans-31"/>
       <use transform="translate(231.391602 39.046875)scale(0.7)" xlink:href="#DejaVuSans-30"/>
      </g>
     </g>
    </g>
    <g id="ytick_4">
     <g id="line2d_74">
      <g>
       <use style="stroke:#000000;stroke-width:0.8;" x="54" xlink:href="#m92a3a7df41" y="148.385449"/>
      </g>
     </g>
     <g id="text_13">
      <!-- $\mathdefault{10^{-8}}$ -->
      <g transform="translate(23.5 152.184668)scale(0.1 -0.1)">
       <use transform="translate(0 0.765625)" xlink:href="#DejaVuSans-31"/>
       <use transform="translate(63.623047 0.765625)" xlink:href="#DejaVuSans-30"/>
       <use transform="translate(128.203125 39.046875)scale(0.7)" xlink:href="#DejaVuSans-2212"/>
       <use transform="translate(186.855469 39.046875)scale(0.7)" xlink:href="#DejaVuSans-38"/>
      </g>
     </g>
    </g>
    <g id="ytick_5">
     <g id="line2d_75">
      <g>
       <use style="stroke:#000000;stroke-width:0.8;" x="54" xlink:href="#m92a3a7df41" y="119.086698"/>
      </g>
     </g>
     <g id="text_14">
      <!-- $\mathdefault{10^{-6}}$ -->
      <g transform="translate(23.5 122.885917)scale(0.1 -0.1)">
       <use transform="translate(0 0.765625)" xlink:href="#DejaVuSans-31"/>
       <use transform="translate(63.623047 0.765625)" xlink:href="#DejaVuSans-30"/>
       <use transform="translate(128.203125 39.046875)scale(0.7)" xlink:href="#DejaVuSans-2212"/>
       <use transform="translate(186.855469 39.046875)scale(0.7)" xlink:href="#DejaVuSans-36"/>
      </g>
     </g>
    </g>
    <g id="ytick_6">
     <g id="line2d_76">
      <g>
       <use style="stroke:#000000;stroke-width:0.8;" x="54" xlink:href="#m92a3a7df41" y="89.787947"/>
      </g>
     </g>
     <g id="text_15">
      <!-- $\mathdefault{10^{-4}}$ -->
      <g transform="translate(23.5 93.587165)scale(0.1 -0.1)">
       <use transform="translate(0 0.684375)" xlink:href="#DejaVuSans-31"/>
       <use transform="translate(63.623047 0.684375)" xlink:href="#DejaVuSans-30"/>
       <use transform="translate(128.203125 38.965625)scale(0.7)" xlink:href="#DejaVuSans-2212"/>
       <use transform="translate(186.855469 38.965625)scale(0.7)" xlink:href="#DejaVuSans-34"/>
      </g>
     </g>
    </g>
    <g id="ytick_7">
     <g id="line2d_77">
      <g>
       <use style="stroke:#000000;stroke-width:0.8;" x="54" xlink:href="#m92a3a7df41" y="60.489195"/>
      </g>
     </g>
     <g id="text_16">
      <!-- $\mathdefault{10^{-2}}$ -->
      <g transform="translate(23.5 64.288414)scale(0.1 -0.1)">
       <use transform="translate(0 0.765625)" xlink:href="#DejaVuSans-31"/>
       <use transform="translate(63.623047 0.765625)" xlink:href="#DejaVuSans-30"/>
       <use transform="translate(128.203125 39.046875)scale(0.7)" xlink:href="#DejaVuSans-2212"/>
       <use transform="translate(186.855469 39.046875)scale(0.7)" xlink:href="#DejaVuSans-32"/>
      </g>
     </g>
    </g>
    <g id="text_17">
     <!-- Error -->
     <defs>
      <path d="M 9.8125 72.90625 
L 55.90625 72.90625 
L 55.90625 64.59375 
L 19.671875 64.59375 
L 19.671875 43.015625 
L 54.390625 43.015625 
L 54.390625 34.71875 
L 19.671875 34.71875 
L 19.671875 8.296875 
L 56.78125 8.296875 
L 56.78125 0 
L 9.8125 0 
z
" id="DejaVuSans-45"/>
      <path d="M 41.109375 46.296875 
Q 39.59375 47.171875 37.8125 47.578125 
Q 36.03125 48 33.890625 48 
Q 26.265625 48 22.1875 43.046875 
Q 18.109375 38.09375 18.109375 28.8125 
L 18.109375 0 
L 9.078125 0 
L 9.078125 54.6875 
L 18.109375 54.6875 
L 18.109375 46.1875 
Q 20.953125 51.171875 25.484375 53.578125 
Q 30.03125 56 36.53125 56 
Q 37.453125 56 38.578125 55.875 
Q 39.703125 55.765625 41.0625 55.515625 
z
" id="DejaVuSans-72"/>
      <path d="M 30.609375 48.390625 
Q 23.390625 48.390625 19.1875 42.75 
Q 14.984375 37.109375 14.984375 27.296875 
Q 14.984375 17.484375 19.15625 11.84375 
Q 23.34375 6.203125 30.609375 6.203125 
Q 37.796875 6.203125 41.984375 11.859375 
Q 46.1875 17.53125 46.1875 27.296875 
Q 46.1875 37.015625 41.984375 42.703125 
Q 37.796875 48.390625 30.609375 48.390625 
z
M 30.609375 56 
Q 42.328125 56 49.015625 48.375 
Q 55.71875 40.765625 55.71875 27.296875 
Q 55.71875 13.875 49.015625 6.21875 
Q 42.328125 -1.421875 30.609375 -1.421875 
Q 18.84375 -1.421875 12.171875 6.21875 
Q 5.515625 13.875 5.515625 27.296875 
Q 5.515625 40.765625 12.171875 48.375 
Q 18.84375 56 30.609375 56 
z
" id="DejaVuSans-6f"/>
     </defs>
     <g transform="translate(13.020312 155.662813)rotate(-90)scale(0.1 -0.1)">
      <use xlink:href="#DejaVuSans-45"/>
      <use x="63.183594" xlink:href="#DejaVuSans-72"/>
      <use x="104.28125" xlink:href="#DejaVuSans-72"/>
      <use x="145.363281" xlink:href="#DejaVuSans-6f"/>
      <use x="206.544922" xlink:href="#DejaVuSans-72"/>
     </g>
    </g>
   </g>
   <g id="line2d_78">
    <path clip-path="url(#pc6eb5a8e65)" d="M 69.218182 151.400334 
L 69.828129 155.81171 
L 70.438076 155.613675 
L 71.048023 160.772354 
L 71.65797 157.631237 
L 72.267918 152.490135 
L 72.877865 152.781704 
L 73.487812 162.709863 
L 74.097759 154.235603 
L 74.707706 154.39402 
L 75.317653 157.406291 
L 75.927601 158.14758 
L 76.537548 155.264785 
L 77.147495 159.99404 
L 77.757442 158.742679 
L 78.367389 156.901038 
L 78.977336 158.858506 
L 79.587284 154.281849 
L 80.197231 157.844091 
L 80.807178 159.950609 
L 81.417125 157.730789 
L 82.027072 154.62665 
L 82.637019 165.572111 
L 83.246967 157.778395 
L 83.856914 156.326273 
L 84.466861 163.770264 
L 85.076808 163.496247 
L 85.686755 160.647219 
L 86.296702 186.244139 
L 86.90665 161.930799 
L 87.516597 157.116661 
L 88.126544 162.904534 
L 88.736491 166.794201 
L 89.346438 162.48108 
L 89.956385 159.018565 
L 90.566333 157.788415 
L 91.17628 167.686573 
L 91.786227 160.348689 
L 92.396174 162.827406 
L 93.006121 161.465566 
L 93.616069 159.700588 
L 94.226016 167.873638 
L 94.835963 161.174094 
L 95.44591 165.403689 
L 96.055857 161.062075 
L 96.665804 166.195274 
L 97.275752 166.214959 
L 97.885699 162.632252 
L 98.495646 162.160474 
L 99.105593 164.423275 
L 99.71554 172.713095 
L 100.325487 163.928879 
L 100.935435 166.337683 
L 101.545382 164.801919 
L 102.155329 164.613438 
L 103.375223 168.282971 
L 103.98517 164.572734 
L 104.595118 163.728429 
L 105.815012 165.718563 
L 106.424959 177.376751 
L 107.034906 170.140806 
L 107.644853 165.405686 
L 108.864748 177.952804 
L 109.474695 170.7927 
L 110.084642 170.106308 
L 110.694589 169.080807 
L 111.304536 164.398074 
L 111.914484 165.351779 
L 112.524431 165.30881 
L 113.134378 172.10893 
L 113.744325 173.946376 
L 114.354272 178.413591 
L 115.574167 171.118778 
L 116.184114 169.1853 
L 116.794061 168.408299 
L 117.404008 174.299615 
L 118.013955 166.915568 
L 118.623902 170.366044 
L 119.843797 169.814214 
L 120.453744 179.224521 
L 121.063691 176.290939 
L 121.673638 176.464487 
L 122.283585 175.394186 
L 122.893533 170.930294 
L 123.50348 173.721799 
L 124.113427 171.160897 
L 124.723374 174.382491 
L 125.333321 174.515635 
L 125.943268 175.611954 
L 126.553216 171.391962 
L 127.163163 184.765935 
L 127.77311 172.058039 
L 128.383057 178.165817 
L 128.993004 174.252175 
L 130.212899 176.188252 
L 130.822846 172.529908 
L 131.432793 176.6856 
L 132.04274 176.252087 
L 132.652687 173.812993 
L 133.262634 175.107475 
L 133.872582 181.582329 
L 134.482529 174.941896 
L 135.092476 174.849412 
L 135.702423 177.482618 
L 136.31237 187.411824 
L 136.922317 175.180595 
L 137.532265 177.813609 
L 138.142212 179.330572 
L 138.752159 180.038012 
L 139.362106 176.935112 
L 139.972053 175.655286 
L 140.582 180.397274 
L 141.801895 177.492452 
L 142.411842 178.900585 
L 143.021789 179.864558 
L 143.631736 175.622182 
L 144.241683 201.825644 
L 144.851631 181.510523 
L 145.461578 183.735205 
L 146.071525 178.694017 
L 146.681472 210.414789 
L 147.291419 182.410482 
L 148.511314 180.958538 
L 149.121261 183.838428 
L 149.731208 179.000635 
L 150.341155 181.636314 
L 150.951102 181.204204 
L 151.561049 180.959342 
L 152.170997 178.923339 
L 152.780944 181.072336 
L 153.390891 181.991525 
L 154.000838 183.599318 
L 154.610785 187.767803 
L 155.220732 182.037732 
L 155.83068 181.380247 
L 156.440627 180.380375 
L 157.050574 183.839989 
L 157.660521 185.622808 
L 158.270468 185.100695 
L 158.880415 181.887895 
L 159.490363 183.983379 
L 160.10031 208.425408 
L 160.710257 186.875856 
L 161.320204 181.341372 
L 161.930151 183.151348 
L 162.540098 188.655728 
L 163.150046 185.243881 
L 163.759993 188.884868 
L 164.36994 186.523925 
L 164.979887 188.283138 
L 165.589834 193.556224 
L 166.199781 186.205741 
L 166.809729 187.050158 
L 167.419676 193.444223 
L 168.029623 187.620103 
L 168.63957 189.291781 
L 169.249517 195.213894 
L 169.859464 187.59604 
L 170.469412 217.005233 
L 171.079359 188.020613 
L 171.689306 191.479053 
L 172.299253 193.377291 
L 172.9092 192.517891 
L 173.519147 188.978885 
L 174.129095 187.602618 
L 174.739042 194.446745 
L 175.348989 188.276713 
L 175.958936 188.751703 
L 176.568883 187.898438 
L 177.17883 188.666038 
L 177.788778 192.252164 
L 178.398725 190.972375 
L 179.008672 190.527717 
L 179.618619 195.671621 
L 180.228566 197.480129 
L 180.838513 191.001641 
L 181.448461 193.767531 
L 182.058408 190.795113 
L 182.668355 192.990786 
L 183.278302 191.098627 
L 183.888249 193.358012 
L 184.498196 189.615148 
L 185.108144 191.319274 
L 185.718091 191.978895 
L 186.328038 191.399759 
L 186.937985 203.622094 
L 187.547932 206.464457 
L 188.157879 193.773906 
L 188.767827 199.854991 
L 189.377774 196.755355 
L 189.987721 196.681062 
L 190.597668 193.808012 
L 191.207615 194.653284 
L 191.817562 196.141674 
L 192.42751 209.257257 
L 193.037457 197.533646 
L 193.647404 194.787731 
L 194.257351 203.198385 
L 194.867298 197.463022 
L 195.477245 193.748446 
L 196.087193 194.925081 
L 196.69714 199.360509 
L 197.917034 194.021365 
L 198.526981 194.10442 
L 199.136928 201.739559 
L 199.746876 202.568249 
L 200.356823 195.263853 
L 200.96677 196.19329 
L 201.576717 201.21299 
L 202.186664 199.283391 
L 202.796611 201.73832 
L 203.406559 195.551956 
L 204.016506 198.807996 
L 204.626453 198.574694 
L 205.2364 205.318841 
L 205.846347 209.4085 
L 206.456294 197.250226 
L 207.066242 201.785576 
L 207.676189 203.857976 
L 208.286136 202.991381 
L 208.896083 203.784067 
L 210.115977 207.145491 
L 210.725925 204.081417 
L 211.335872 207.497047 
L 211.945819 199.392134 
L 212.555766 201.695102 
L 213.165713 199.778051 
L 213.77566 203.962562 
L 214.385608 213.355786 
L 214.995555 203.441433 
L 215.605502 201.054139 
L 216.215449 204.896014 
L 216.825396 207.521599 
L 217.435343 200.193755 
L 218.045291 202.867376 
L 218.655238 204.514863 
L 219.265185 208.500278 
L 219.875132 204.775057 
L 220.485079 202.227461 
L 221.095026 203.391432 
L 221.704974 208.926681 
L 222.314921 208.281724 
L 222.924868 206.02187 
L 223.534815 202.405198 
L 224.144762 207.658358 
L 225.364657 209.176976 
L 225.974604 205.658354 
L 226.584551 204.932754 
L 227.194498 211.722788 
L 227.804445 206.410002 
L 228.414392 212.147294 
L 229.02434 207.093531 
L 229.634287 205.605803 
L 230.244234 211.734702 
L 230.854181 211.208511 
L 231.464128 209.614494 
L 232.074075 216.964406 
L 232.684023 208.151389 
L 233.29397 216.431208 
L 233.903917 211.471887 
L 234.513864 213.355786 
L 235.123811 206.169319 
L 235.733758 209.015502 
L 236.343706 215.997257 
L 236.953653 210.871755 
L 237.5636 208.299073 
L 238.173547 210.385782 
L 238.783494 214.695189 
L 239.393441 224.655985 
L 240.003389 222.13724 
L 240.613336 211.934577 
L 241.223283 223.420736 
L 241.83323 215.525772 
L 242.443177 215.127353 
L 243.053124 209.871718 
L 243.663072 212.561291 
L 244.273019 217.866492 
L 244.882966 211.946894 
L 245.492913 213.736202 
L 246.10286 217.487229 
L 246.712807 212.236993 
L 247.322755 211.330438 
L 247.932702 216.81691 
L 248.542649 214.462117 
L 249.152596 220.572419 
L 249.762543 211.575714 
L 250.37249 214.839244 
L 250.982438 214.434714 
L 251.592385 216.00892 
L 252.202332 214.480452 
L 252.812279 212.269337 
L 253.422226 216.162517 
L 254.032173 215.723574 
L 254.642121 215.127353 
L 255.252068 215.779629 
L 255.862015 216.18648 
L 256.471962 219.162322 
L 257.081909 216.319914 
L 257.691856 220.742086 
L 258.301804 218.936423 
L 258.911751 234.045913 
L 259.521698 218.303202 
L 260.131645 226.860611 
L 260.741592 231.466286 
L 261.351539 220.453939 
L 261.961487 225.078718 
L 262.571434 227.190329 
L 263.181381 221.360757 
L 263.791328 220.742086 
L 264.401275 219.396537 
L 265.011222 218.55943 
L 265.62117 219.979101 
L 266.231117 218.236582 
L 266.841064 217.284319 
L 267.451011 220.693146 
L 268.060958 237.036143 
L 268.670905 222.5153 
L 269.280853 225.27601 
L 269.8908 219.258866 
L 270.500747 221.553147 
L 271.110694 219.722873 
L 271.720641 219.764867 
L 272.330588 222.22967 
L 272.940536 242.116364 
L 273.550483 224.259599 
L 274.16043 220.36072 
L 274.770377 224.432729 
L 275.380324 222.848473 
L 275.990271 229.440238 
L 276.600219 225.030336 
L 277.210166 221.926653 
L 277.820113 224.701592 
L 278.43006 232.952577 
L 279.040007 228.296368 
L 279.649954 224.56574 
L 280.259902 224.008429 
L 280.869849 221.69422 
L 282.089743 237.036143 
L 282.69969 238.070112 
L 283.309637 226.366215 
L 283.919585 240.839668 
L 284.529532 226.019103 
L 285.139479 226.366215 
L 285.749426 223.926862 
L 286.359373 228.377416 
L 286.96932 231.335103 
L 287.579268 237.036143 
L 288.189215 228.712343 
L 288.799162 230.835856 
L 289.409109 233.660211 
L 290.019056 223.610665 
L 290.629003 221.722814 
L 291.238951 221.926653 
L 291.848898 228.626944 
L 292.458845 226.860611 
L 293.068792 228.712343 
L 293.678739 223.727405 
L 294.288686 221.838493 
L 294.898634 218.862871 
L 295.508581 218.073021 
L 296.118528 219.89254 
L 296.728475 216.634003 
L 297.338422 217.976866 
L 297.948369 215.178372 
L 298.558317 215.656955 
L 299.168264 214.6857 
L 300.388158 212.269337 
L 300.998105 211.953062 
L 301.608052 210.819903 
L 302.218 210.323384 
L 302.827947 209.003846 
L 304.047841 207.785288 
L 305.267735 206.007311 
L 305.877683 205.269009 
L 307.097577 203.508172 
L 310.147313 199.432534 
L 318.076626 188.840495 
L 330.275569 172.53505 
L 330.885516 171.49844 
L 332.105411 169.859669 
L 332.715358 169.28909 
L 333.935252 167.496328 
L 334.545199 166.869649 
L 335.155147 165.899496 
L 335.765094 165.231626 
L 336.375041 164.195716 
L 338.81483 161.207469 
L 341.254618 157.821108 
L 342.474513 155.942443 
L 343.08446 155.450286 
L 343.694407 154.436447 
L 344.304354 153.913968 
L 344.914301 152.835693 
L 345.524248 152.278917 
L 346.134196 151.127441 
L 347.35409 149.921388 
L 347.964037 148.655321 
L 350.403826 145.916967 
L 351.013773 145.183728 
L 351.62372 143.650657 
L 352.843615 142.019281 
L 353.453562 142.019281 
L 355.89335 138.404734 
L 357.113245 136.384738 
L 357.723192 136.384738 
L 358.943086 134.190484 
L 359.553033 134.190484 
L 360.772928 131.789048 
L 361.382875 131.789048 
L 362.602769 129.137191 
L 363.212716 129.137191 
L 363.822664 127.699893 
L 364.432611 127.699893 
L 365.042558 126.176547 
L 365.652505 126.176547 
L 366.262452 124.55619 
L 366.872399 124.55619 
L 367.482347 122.825625 
L 368.092294 122.825625 
L 368.702241 120.968762 
L 369.922135 120.968762 
L 370.532082 118.96571 
L 371.751977 118.96571 
L 372.361924 116.791477 
L 372.971871 116.791477 
L 373.581818 114.414057 
L 373.581818 114.414057 
" style="fill:none;stroke:#1f77b4;stroke-linecap:square;stroke-width:1.5;"/>
   </g>
   <g id="line2d_79">
    <path clip-path="url(#pc6eb5a8e65)" d="M 69.218182 144.03465 
L 69.828129 144.953519 
L 70.438076 147.614266 
L 71.048023 145.237535 
L 71.65797 146.654231 
L 72.267918 143.598452 
L 72.877865 143.513508 
L 73.487812 145.399578 
L 74.097759 143.489642 
L 74.707706 143.350283 
L 75.317653 143.605297 
L 75.927601 144.922218 
L 76.537548 142.971733 
L 77.147495 143.284208 
L 77.757442 144.169461 
L 78.367389 144.156373 
L 78.977336 142.628205 
L 79.587284 144.11056 
L 80.197231 143.354929 
L 80.807178 142.1298 
L 81.417125 142.914383 
L 82.027072 143.077218 
L 83.246967 141.21717 
L 83.856914 140.910813 
L 85.076808 141.281183 
L 85.686755 141.176081 
L 86.296702 140.683965 
L 87.516597 140.735176 
L 88.126544 139.889715 
L 88.736491 139.949791 
L 90.566333 139.59497 
L 91.786227 138.617105 
L 92.396174 138.767304 
L 93.006121 138.251047 
L 93.616069 138.433897 
L 94.226016 137.94978 
L 94.835963 137.642529 
L 95.44591 137.677594 
L 96.055857 137.547123 
L 96.665804 137.119565 
L 97.275752 137.044888 
L 97.885699 136.666202 
L 100.935435 135.695306 
L 101.545382 135.605849 
L 102.155329 135.272508 
L 108.864748 133.081039 
L 110.694589 132.438953 
L 111.304536 132.294369 
L 112.524431 131.809589 
L 114.354272 131.222189 
L 141.801895 121.977409 
L 180.838513 108.826345 
L 329.665622 58.781361 
L 333.325305 57.571199 
L 336.375041 56.52741 
L 340.034724 55.383412 
L 346.744143 53.155032 
L 347.35409 53.005028 
L 347.964037 52.693972 
L 351.013773 51.842485 
L 351.62372 51.46719 
L 352.843615 51.06836 
L 353.453562 51.06836 
L 356.503298 49.945919 
L 357.113245 49.695545 
L 357.723192 49.695545 
L 358.943086 49.163142 
L 359.553033 49.163142 
L 360.772928 48.582076 
L 361.382875 48.582076 
L 362.602769 47.942546 
L 363.212716 47.942546 
L 363.822664 47.596931 
L 364.432611 47.596931 
L 365.042558 47.231453 
L 365.652505 47.231453 
L 366.262452 46.843687 
L 366.872399 46.843687 
L 367.482347 46.430736 
L 368.092294 46.430736 
L 368.702241 45.989099 
L 369.922135 45.989099 
L 370.532082 45.514489 
L 371.751977 45.514489 
L 372.361924 45.001579 
L 372.971871 45.001579 
L 373.581818 44.443636 
L 373.581818 44.443636 
" style="fill:none;stroke:#ff7f0e;stroke-linecap:square;stroke-width:1.5;"/>
   </g>
   <g id="patch_3">
    <path d="M 54 252 
L 54 34.56 
" style="fill:none;stroke:#000000;stroke-linecap:square;stroke-linejoin:miter;stroke-width:0.8;"/>
   </g>
   <g id="patch_4">
    <path d="M 388.8 252 
L 388.8 34.56 
" style="fill:none;stroke:#000000;stroke-linecap:square;stroke-linejoin:miter;stroke-width:0.8;"/>
   </g>
   <g id="patch_5">
    <path d="M 54 252 
L 388.8 252 
" style="fill:none;stroke:#000000;stroke-linecap:square;stroke-linejoin:miter;stroke-width:0.8;"/>
   </g>
   <g id="patch_6">
    <path d="M 54 34.56 
L 388.8 34.56 
" style="fill:none;stroke:#000000;stroke-linecap:square;stroke-linejoin:miter;stroke-width:0.8;"/>
   </g>
  </g>
 </g>
 <defs>
  <clipPath id="pc6eb5a8e65">
   <rect height="217.44" width="334.8" x="54" y="34.56"/>
  </clipPath>
 </defs>
</svg>
