<?xml version="1.0" encoding="utf-8" standalone="no"?>
<!DOCTYPE svg PUBLIC "-//W3C//DTD SVG 1.1//EN"
  "http://www.w3.org/Graphics/SVG/1.1/DTD/svg11.dtd">
<!-- Created with matplotlib (http://matplotlib.org/) -->
<svg height="288pt" version="1.1" viewBox="0 0 432 288" width="432pt" xmlns="http://www.w3.org/2000/svg" xmlns:xlink="http://www.w3.org/1999/xlink">
 <defs>
  <style type="text/css">
*{stroke-linecap:butt;stroke-linejoin:round;}
  </style>
 </defs>
 <g id="figure_1">
  <g id="patch_1">
   <path d="M 0 288 
L 432 288 
L 432 0 
L 0 0 
z
" style="fill:#ffffff;"/>
  </g>
  <g id="axes_1">
   <g id="patch_2">
    <path d="M 54 252 
L 388.8 252 
L 388.8 34.56 
L 54 34.56 
z
" style="fill:#ffffff;"/>
   </g>
   <g id="matplotlib.axis_1">
    <g id="xtick_1">
     <g id="line2d_1">
      <defs>
       <path d="M 0 0 
L 0 3.5 
" id="m2a3349e6e2" style="stroke:#000000;stroke-width:0.8;"/>
      </defs>
      <g>
       <use style="stroke:#000000;stroke-width:0.8;" x="69.218182" xlink:href="#m2a3349e6e2" y="252"/>
      </g>
     </g>
     <g id="text_1">
      <!-- $\mathdefault{10^{-8}}$ -->
      <defs>
       <path d="M 12.40625 8.296875 
L 28.515625 8.296875 
L 28.515625 63.921875 
L 10.984375 60.40625 
L 10.984375 69.390625 
L 28.421875 72.90625 
L 38.28125 72.90625 
L 38.28125 8.296875 
L 54.390625 8.296875 
L 54.390625 0 
L 12.40625 0 
z
" id="DejaVuSans-31"/>
       <path d="M 31.78125 66.40625 
Q 24.171875 66.40625 20.328125 58.90625 
Q 16.5 51.421875 16.5 36.375 
Q 16.5 21.390625 20.328125 13.890625 
Q 24.171875 6.390625 31.78125 6.390625 
Q 39.453125 6.390625 43.28125 13.890625 
Q 47.125 21.390625 47.125 36.375 
Q 47.125 51.421875 43.28125 58.90625 
Q 39.453125 66.40625 31.78125 66.40625 
z
M 31.78125 74.21875 
Q 44.046875 74.21875 50.515625 64.515625 
Q 56.984375 54.828125 56.984375 36.375 
Q 56.984375 17.96875 50.515625 8.265625 
Q 44.046875 -1.421875 31.78125 -1.421875 
Q 19.53125 -1.421875 13.0625 8.265625 
Q 6.59375 17.96875 6.59375 36.375 
Q 6.59375 54.828125 13.0625 64.515625 
Q 19.53125 74.21875 31.78125 74.21875 
z
" id="DejaVuSans-30"/>
       <path d="M 10.59375 35.5 
L 73.1875 35.5 
L 73.1875 27.203125 
L 10.59375 27.203125 
z
" id="DejaVuSans-2212"/>
       <path d="M 31.78125 34.625 
Q 24.75 34.625 20.71875 30.859375 
Q 16.703125 27.09375 16.703125 20.515625 
Q 16.703125 13.921875 20.71875 10.15625 
Q 24.75 6.390625 31.78125 6.390625 
Q 38.8125 6.390625 42.859375 10.171875 
Q 46.921875 13.96875 46.921875 20.515625 
Q 46.921875 27.09375 42.890625 30.859375 
Q 38.875 34.625 31.78125 34.625 
z
M 21.921875 38.8125 
Q 15.578125 40.375 12.03125 44.71875 
Q 8.5 49.078125 8.5 55.328125 
Q 8.5 64.0625 14.71875 69.140625 
Q 20.953125 74.21875 31.78125 74.21875 
Q 42.671875 74.21875 48.875 69.140625 
Q 55.078125 64.0625 55.078125 55.328125 
Q 55.078125 49.078125 51.53125 44.71875 
Q 48 40.375 41.703125 38.8125 
Q 48.828125 37.15625 52.796875 32.3125 
Q 56.78125 27.484375 56.78125 20.515625 
Q 56.78125 9.90625 50.3125 4.234375 
Q 43.84375 -1.421875 31.78125 -1.421875 
Q 19.734375 -1.421875 13.25 4.234375 
Q 6.78125 9.90625 6.78125 20.515625 
Q 6.78125 27.484375 10.78125 32.3125 
Q 14.796875 37.15625 21.921875 38.8125 
z
M 18.3125 54.390625 
Q 18.3125 48.734375 21.84375 45.5625 
Q 25.390625 42.390625 31.78125 42.390625 
Q 38.140625 42.390625 41.71875 45.5625 
Q 45.3125 48.734375 45.3125 54.390625 
Q 45.3125 60.0625 41.71875 63.234375 
Q 38.140625 66.40625 31.78125 66.40625 
Q 25.390625 66.40625 21.84375 63.234375 
Q 18.3125 60.0625 18.3125 54.390625 
z
" id="DejaVuSans-38"/>
      </defs>
      <g transform="translate(57.468182 266.598437)scale(0.1 -0.1)">
       <use transform="translate(0 0.765625)" xlink:href="#DejaVuSans-31"/>
       <use transform="translate(63.623047 0.765625)" xlink:href="#DejaVuSans-30"/>
       <use transform="translate(128.203125 39.046875)scale(0.7)" xlink:href="#DejaVuSans-2212"/>
       <use transform="translate(186.855469 39.046875)scale(0.7)" xlink:href="#DejaVuSans-38"/>
      </g>
     </g>
    </g>
    <g id="xtick_2">
     <g id="line2d_2">
      <g>
       <use style="stroke:#000000;stroke-width:0.8;" x="112.698701" xlink:href="#m2a3349e6e2" y="252"/>
      </g>
     </g>
     <g id="text_2">
      <!-- $\mathdefault{10^{-7}}$ -->
      <defs>
       <path d="M 8.203125 72.90625 
L 55.078125 72.90625 
L 55.078125 68.703125 
L 28.609375 0 
L 18.3125 0 
L 43.21875 64.59375 
L 8.203125 64.59375 
z
" id="DejaVuSans-37"/>
      </defs>
      <g transform="translate(100.948701 266.598437)scale(0.1 -0.1)">
       <use transform="translate(0 0.684375)" xlink:href="#DejaVuSans-31"/>
       <use transform="translate(63.623047 0.684375)" xlink:href="#DejaVuSans-30"/>
       <use transform="translate(128.203125 38.965625)scale(0.7)" xlink:href="#DejaVuSans-2212"/>
       <use transform="translate(186.855469 38.965625)scale(0.7)" xlink:href="#DejaVuSans-37"/>
      </g>
     </g>
    </g>
    <g id="xtick_3">
     <g id="line2d_3">
      <g>
       <use style="stroke:#000000;stroke-width:0.8;" x="156.179221" xlink:href="#m2a3349e6e2" y="252"/>
      </g>
     </g>
     <g id="text_3">
      <!-- $\mathdefault{10^{-6}}$ -->
      <defs>
       <path d="M 33.015625 40.375 
Q 26.375 40.375 22.484375 35.828125 
Q 18.609375 31.296875 18.609375 23.390625 
Q 18.609375 15.53125 22.484375 10.953125 
Q 26.375 6.390625 33.015625 6.390625 
Q 39.65625 6.390625 43.53125 10.953125 
Q 47.40625 15.53125 47.40625 23.390625 
Q 47.40625 31.296875 43.53125 35.828125 
Q 39.65625 40.375 33.015625 40.375 
z
M 52.59375 71.296875 
L 52.59375 62.3125 
Q 48.875 64.0625 45.09375 64.984375 
Q 41.3125 65.921875 37.59375 65.921875 
Q 27.828125 65.921875 22.671875 59.328125 
Q 17.53125 52.734375 16.796875 39.40625 
Q 19.671875 43.65625 24.015625 45.921875 
Q 28.375 48.1875 33.59375 48.1875 
Q 44.578125 48.1875 50.953125 41.515625 
Q 57.328125 34.859375 57.328125 23.390625 
Q 57.328125 12.15625 50.6875 5.359375 
Q 44.046875 -1.421875 33.015625 -1.421875 
Q 20.359375 -1.421875 13.671875 8.265625 
Q 6.984375 17.96875 6.984375 36.375 
Q 6.984375 53.65625 15.1875 63.9375 
Q 23.390625 74.21875 37.203125 74.21875 
Q 40.921875 74.21875 44.703125 73.484375 
Q 48.484375 72.75 52.59375 71.296875 
z
" id="DejaVuSans-36"/>
      </defs>
      <g transform="translate(144.429221 266.598437)scale(0.1 -0.1)">
       <use transform="translate(0 0.765625)" xlink:href="#DejaVuSans-31"/>
       <use transform="translate(63.623047 0.765625)" xlink:href="#DejaVuSans-30"/>
       <use transform="translate(128.203125 39.046875)scale(0.7)" xlink:href="#DejaVuSans-2212"/>
       <use transform="translate(186.855469 39.046875)scale(0.7)" xlink:href="#DejaVuSans-36"/>
      </g>
     </g>
    </g>
    <g id="xtick_4">
     <g id="line2d_4">
      <g>
       <use style="stroke:#000000;stroke-width:0.8;" x="199.65974" xlink:href="#m2a3349e6e2" y="252"/>
      </g>
     </g>
     <g id="text_4">
      <!-- $\mathdefault{10^{-5}}$ -->
      <defs>
       <path d="M 10.796875 72.90625 
L 49.515625 72.90625 
L 49.515625 64.59375 
L 19.828125 64.59375 
L 19.828125 46.734375 
Q 21.96875 47.46875 24.109375 47.828125 
Q 26.265625 48.1875 28.421875 48.1875 
Q 40.625 48.1875 47.75 41.5 
Q 54.890625 34.8125 54.890625 23.390625 
Q 54.890625 11.625 47.5625 5.09375 
Q 40.234375 -1.421875 26.90625 -1.421875 
Q 22.3125 -1.421875 17.546875 -0.640625 
Q 12.796875 0.140625 7.71875 1.703125 
L 7.71875 11.625 
Q 12.109375 9.234375 16.796875 8.0625 
Q 21.484375 6.890625 26.703125 6.890625 
Q 35.15625 6.890625 40.078125 11.328125 
Q 45.015625 15.765625 45.015625 23.390625 
Q 45.015625 31 40.078125 35.4375 
Q 35.15625 39.890625 26.703125 39.890625 
Q 22.75 39.890625 18.8125 39.015625 
Q 14.890625 38.140625 10.796875 36.28125 
z
" id="DejaVuSans-35"/>
      </defs>
      <g transform="translate(187.90974 266.598437)scale(0.1 -0.1)">
       <use transform="translate(0 0.684375)" xlink:href="#DejaVuSans-31"/>
       <use transform="translate(63.623047 0.684375)" xlink:href="#DejaVuSans-30"/>
       <use transform="translate(128.203125 38.965625)scale(0.7)" xlink:href="#DejaVuSans-2212"/>
       <use transform="translate(186.855469 38.965625)scale(0.7)" xlink:href="#DejaVuSans-35"/>
      </g>
     </g>
    </g>
    <g id="xtick_5">
     <g id="line2d_5">
      <g>
       <use style="stroke:#000000;stroke-width:0.8;" x="243.14026" xlink:href="#m2a3349e6e2" y="252"/>
      </g>
     </g>
     <g id="text_5">
      <!-- $\mathdefault{10^{-4}}$ -->
      <defs>
       <path d="M 37.796875 64.3125 
L 12.890625 25.390625 
L 37.796875 25.390625 
z
M 35.203125 72.90625 
L 47.609375 72.90625 
L 47.609375 25.390625 
L 58.015625 25.390625 
L 58.015625 17.1875 
L 47.609375 17.1875 
L 47.609375 0 
L 37.796875 0 
L 37.796875 17.1875 
L 4.890625 17.1875 
L 4.890625 26.703125 
z
" id="DejaVuSans-34"/>
      </defs>
      <g transform="translate(231.39026 266.598437)scale(0.1 -0.1)">
       <use transform="translate(0 0.684375)" xlink:href="#DejaVuSans-31"/>
       <use transform="translate(63.623047 0.684375)" xlink:href="#DejaVuSans-30"/>
       <use transform="translate(128.203125 38.965625)scale(0.7)" xlink:href="#DejaVuSans-2212"/>
       <use transform="translate(186.855469 38.965625)scale(0.7)" xlink:href="#DejaVuSans-34"/>
      </g>
     </g>
    </g>
    <g id="xtick_6">
     <g id="line2d_6">
      <g>
       <use style="stroke:#000000;stroke-width:0.8;" x="286.620779" xlink:href="#m2a3349e6e2" y="252"/>
      </g>
     </g>
     <g id="text_6">
      <!-- $\mathdefault{10^{-3}}$ -->
      <defs>
       <path d="M 40.578125 39.3125 
Q 47.65625 37.796875 51.625 33 
Q 55.609375 28.21875 55.609375 21.1875 
Q 55.609375 10.40625 48.1875 4.484375 
Q 40.765625 -1.421875 27.09375 -1.421875 
Q 22.515625 -1.421875 17.65625 -0.515625 
Q 12.796875 0.390625 7.625 2.203125 
L 7.625 11.71875 
Q 11.71875 9.328125 16.59375 8.109375 
Q 21.484375 6.890625 26.8125 6.890625 
Q 36.078125 6.890625 40.9375 10.546875 
Q 45.796875 14.203125 45.796875 21.1875 
Q 45.796875 27.640625 41.28125 31.265625 
Q 36.765625 34.90625 28.71875 34.90625 
L 20.21875 34.90625 
L 20.21875 43.015625 
L 29.109375 43.015625 
Q 36.375 43.015625 40.234375 45.921875 
Q 44.09375 48.828125 44.09375 54.296875 
Q 44.09375 59.90625 40.109375 62.90625 
Q 36.140625 65.921875 28.71875 65.921875 
Q 24.65625 65.921875 20.015625 65.03125 
Q 15.375 64.15625 9.8125 62.3125 
L 9.8125 71.09375 
Q 15.4375 72.65625 20.34375 73.4375 
Q 25.25 74.21875 29.59375 74.21875 
Q 40.828125 74.21875 47.359375 69.109375 
Q 53.90625 64.015625 53.90625 55.328125 
Q 53.90625 49.265625 50.4375 45.09375 
Q 46.96875 40.921875 40.578125 39.3125 
z
" id="DejaVuSans-33"/>
      </defs>
      <g transform="translate(274.870779 266.598437)scale(0.1 -0.1)">
       <use transform="translate(0 0.765625)" xlink:href="#DejaVuSans-31"/>
       <use transform="translate(63.623047 0.765625)" xlink:href="#DejaVuSans-30"/>
       <use transform="translate(128.203125 39.046875)scale(0.7)" xlink:href="#DejaVuSans-2212"/>
       <use transform="translate(186.855469 39.046875)scale(0.7)" xlink:href="#DejaVuSans-33"/>
      </g>
     </g>
    </g>
    <g id="xtick_7">
     <g id="line2d_7">
      <g>
       <use style="stroke:#000000;stroke-width:0.8;" x="330.101299" xlink:href="#m2a3349e6e2" y="252"/>
      </g>
     </g>
     <g id="text_7">
      <!-- $\mathdefault{10^{-2}}$ -->
      <defs>
       <path d="M 19.1875 8.296875 
L 53.609375 8.296875 
L 53.609375 0 
L 7.328125 0 
L 7.328125 8.296875 
Q 12.9375 14.109375 22.625 23.890625 
Q 32.328125 33.6875 34.8125 36.53125 
Q 39.546875 41.84375 41.421875 45.53125 
Q 43.3125 49.21875 43.3125 52.78125 
Q 43.3125 58.59375 39.234375 62.25 
Q 35.15625 65.921875 28.609375 65.921875 
Q 23.96875 65.921875 18.8125 64.3125 
Q 13.671875 62.703125 7.8125 59.421875 
L 7.8125 69.390625 
Q 13.765625 71.78125 18.9375 73 
Q 24.125 74.21875 28.421875 74.21875 
Q 39.75 74.21875 46.484375 68.546875 
Q 53.21875 62.890625 53.21875 53.421875 
Q 53.21875 48.921875 51.53125 44.890625 
Q 49.859375 40.875 45.40625 35.40625 
Q 44.1875 33.984375 37.640625 27.21875 
Q 31.109375 20.453125 19.1875 8.296875 
z
" id="DejaVuSans-32"/>
      </defs>
      <g transform="translate(318.351299 266.598437)scale(0.1 -0.1)">
       <use transform="translate(0 0.765625)" xlink:href="#DejaVuSans-31"/>
       <use transform="translate(63.623047 0.765625)" xlink:href="#DejaVuSans-30"/>
       <use transform="translate(128.203125 39.046875)scale(0.7)" xlink:href="#DejaVuSans-2212"/>
       <use transform="translate(186.855469 39.046875)scale(0.7)" xlink:href="#DejaVuSans-32"/>
      </g>
     </g>
    </g>
    <g id="xtick_8">
     <g id="line2d_8">
      <g>
       <use style="stroke:#000000;stroke-width:0.8;" x="373.581818" xlink:href="#m2a3349e6e2" y="252"/>
      </g>
     </g>
     <g id="text_8">
      <!-- $\mathdefault{10^{-1}}$ -->
      <g transform="translate(361.831818 266.598437)scale(0.1 -0.1)">
       <use transform="translate(0 0.684375)" xlink:href="#DejaVuSans-31"/>
       <use transform="translate(63.623047 0.684375)" xlink:href="#DejaVuSans-30"/>
       <use transform="translate(128.203125 38.965625)scale(0.7)" xlink:href="#DejaVuSans-2212"/>
       <use transform="translate(186.855469 38.965625)scale(0.7)" xlink:href="#DejaVuSans-31"/>
      </g>
     </g>
    </g>
    <g id="xtick_9">
     <g id="line2d_9">
      <defs>
       <path d="M 0 0 
L 0 2 
" id="mc229a40b0c" style="stroke:#000000;stroke-width:0.6;"/>
      </defs>
      <g>
       <use style="stroke:#000000;stroke-width:0.6;" x="56.129241" xlink:href="#mc229a40b0c" y="252"/>
      </g>
     </g>
    </g>
    <g id="xtick_10">
     <g id="line2d_10">
      <g>
       <use style="stroke:#000000;stroke-width:0.6;" x="59.572083" xlink:href="#mc229a40b0c" y="252"/>
      </g>
     </g>
    </g>
    <g id="xtick_11">
     <g id="line2d_11">
      <g>
       <use style="stroke:#000000;stroke-width:0.6;" x="62.482964" xlink:href="#mc229a40b0c" y="252"/>
      </g>
     </g>
    </g>
    <g id="xtick_12">
     <g id="line2d_12">
      <g>
       <use style="stroke:#000000;stroke-width:0.6;" x="65.004484" xlink:href="#mc229a40b0c" y="252"/>
      </g>
     </g>
    </g>
    <g id="xtick_13">
     <g id="line2d_13">
      <g>
       <use style="stroke:#000000;stroke-width:0.6;" x="67.228622" xlink:href="#mc229a40b0c" y="252"/>
      </g>
     </g>
    </g>
    <g id="xtick_14">
     <g id="line2d_14">
      <g>
       <use style="stroke:#000000;stroke-width:0.6;" x="82.307122" xlink:href="#mc229a40b0c" y="252"/>
      </g>
     </g>
    </g>
    <g id="xtick_15">
     <g id="line2d_15">
      <g>
       <use style="stroke:#000000;stroke-width:0.6;" x="89.963662" xlink:href="#mc229a40b0c" y="252"/>
      </g>
     </g>
    </g>
    <g id="xtick_16">
     <g id="line2d_16">
      <g>
       <use style="stroke:#000000;stroke-width:0.6;" x="95.396063" xlink:href="#mc229a40b0c" y="252"/>
      </g>
     </g>
    </g>
    <g id="xtick_17">
     <g id="line2d_17">
      <g>
       <use style="stroke:#000000;stroke-width:0.6;" x="99.609761" xlink:href="#mc229a40b0c" y="252"/>
      </g>
     </g>
    </g>
    <g id="xtick_18">
     <g id="line2d_18">
      <g>
       <use style="stroke:#000000;stroke-width:0.6;" x="103.052602" xlink:href="#mc229a40b0c" y="252"/>
      </g>
     </g>
    </g>
    <g id="xtick_19">
     <g id="line2d_19">
      <g>
       <use style="stroke:#000000;stroke-width:0.6;" x="105.963484" xlink:href="#mc229a40b0c" y="252"/>
      </g>
     </g>
    </g>
    <g id="xtick_20">
     <g id="line2d_20">
      <g>
       <use style="stroke:#000000;stroke-width:0.6;" x="108.485004" xlink:href="#mc229a40b0c" y="252"/>
      </g>
     </g>
    </g>
    <g id="xtick_21">
     <g id="line2d_21">
      <g>
       <use style="stroke:#000000;stroke-width:0.6;" x="110.709142" xlink:href="#mc229a40b0c" y="252"/>
      </g>
     </g>
    </g>
    <g id="xtick_22">
     <g id="line2d_22">
      <g>
       <use style="stroke:#000000;stroke-width:0.6;" x="125.787642" xlink:href="#mc229a40b0c" y="252"/>
      </g>
     </g>
    </g>
    <g id="xtick_23">
     <g id="line2d_23">
      <g>
       <use style="stroke:#000000;stroke-width:0.6;" x="133.444181" xlink:href="#mc229a40b0c" y="252"/>
      </g>
     </g>
    </g>
    <g id="xtick_24">
     <g id="line2d_24">
      <g>
       <use style="stroke:#000000;stroke-width:0.6;" x="138.876582" xlink:href="#mc229a40b0c" y="252"/>
      </g>
     </g>
    </g>
    <g id="xtick_25">
     <g id="line2d_25">
      <g>
       <use style="stroke:#000000;stroke-width:0.6;" x="143.09028" xlink:href="#mc229a40b0c" y="252"/>
      </g>
     </g>
    </g>
    <g id="xtick_26">
     <g id="line2d_26">
      <g>
       <use style="stroke:#000000;stroke-width:0.6;" x="146.533122" xlink:href="#mc229a40b0c" y="252"/>
      </g>
     </g>
    </g>
    <g id="xtick_27">
     <g id="line2d_27">
      <g>
       <use style="stroke:#000000;stroke-width:0.6;" x="149.444003" xlink:href="#mc229a40b0c" y="252"/>
      </g>
     </g>
    </g>
    <g id="xtick_28">
     <g id="line2d_28">
      <g>
       <use style="stroke:#000000;stroke-width:0.6;" x="151.965523" xlink:href="#mc229a40b0c" y="252"/>
      </g>
     </g>
    </g>
    <g id="xtick_29">
     <g id="line2d_29">
      <g>
       <use style="stroke:#000000;stroke-width:0.6;" x="154.189661" xlink:href="#mc229a40b0c" y="252"/>
      </g>
     </g>
    </g>
    <g id="xtick_30">
     <g id="line2d_30">
      <g>
       <use style="stroke:#000000;stroke-width:0.6;" x="169.268161" xlink:href="#mc229a40b0c" y="252"/>
      </g>
     </g>
    </g>
    <g id="xtick_31">
     <g id="line2d_31">
      <g>
       <use style="stroke:#000000;stroke-width:0.6;" x="176.924701" xlink:href="#mc229a40b0c" y="252"/>
      </g>
     </g>
    </g>
    <g id="xtick_32">
     <g id="line2d_32">
      <g>
       <use style="stroke:#000000;stroke-width:0.6;" x="182.357102" xlink:href="#mc229a40b0c" y="252"/>
      </g>
     </g>
    </g>
    <g id="xtick_33">
     <g id="line2d_33">
      <g>
       <use style="stroke:#000000;stroke-width:0.6;" x="186.5708" xlink:href="#mc229a40b0c" y="252"/>
      </g>
     </g>
    </g>
    <g id="xtick_34">
     <g id="line2d_34">
      <g>
       <use style="stroke:#000000;stroke-width:0.6;" x="190.013641" xlink:href="#mc229a40b0c" y="252"/>
      </g>
     </g>
    </g>
    <g id="xtick_35">
     <g id="line2d_35">
      <g>
       <use style="stroke:#000000;stroke-width:0.6;" x="192.924523" xlink:href="#mc229a40b0c" y="252"/>
      </g>
     </g>
    </g>
    <g id="xtick_36">
     <g id="line2d_36">
      <g>
       <use style="stroke:#000000;stroke-width:0.6;" x="195.446043" xlink:href="#mc229a40b0c" y="252"/>
      </g>
     </g>
    </g>
    <g id="xtick_37">
     <g id="line2d_37">
      <g>
       <use style="stroke:#000000;stroke-width:0.6;" x="197.670181" xlink:href="#mc229a40b0c" y="252"/>
      </g>
     </g>
    </g>
    <g id="xtick_38">
     <g id="line2d_38">
      <g>
       <use style="stroke:#000000;stroke-width:0.6;" x="212.748681" xlink:href="#mc229a40b0c" y="252"/>
      </g>
     </g>
    </g>
    <g id="xtick_39">
     <g id="line2d_39">
      <g>
       <use style="stroke:#000000;stroke-width:0.6;" x="220.40522" xlink:href="#mc229a40b0c" y="252"/>
      </g>
     </g>
    </g>
    <g id="xtick_40">
     <g id="line2d_40">
      <g>
       <use style="stroke:#000000;stroke-width:0.6;" x="225.837621" xlink:href="#mc229a40b0c" y="252"/>
      </g>
     </g>
    </g>
    <g id="xtick_41">
     <g id="line2d_41">
      <g>
       <use style="stroke:#000000;stroke-width:0.6;" x="230.051319" xlink:href="#mc229a40b0c" y="252"/>
      </g>
     </g>
    </g>
    <g id="xtick_42">
     <g id="line2d_42">
      <g>
       <use style="stroke:#000000;stroke-width:0.6;" x="233.494161" xlink:href="#mc229a40b0c" y="252"/>
      </g>
     </g>
    </g>
    <g id="xtick_43">
     <g id="line2d_43">
      <g>
       <use style="stroke:#000000;stroke-width:0.6;" x="236.405042" xlink:href="#mc229a40b0c" y="252"/>
      </g>
     </g>
    </g>
    <g id="xtick_44">
     <g id="line2d_44">
      <g>
       <use style="stroke:#000000;stroke-width:0.6;" x="238.926562" xlink:href="#mc229a40b0c" y="252"/>
      </g>
     </g>
    </g>
    <g id="xtick_45">
     <g id="line2d_45">
      <g>
       <use style="stroke:#000000;stroke-width:0.6;" x="241.1507" xlink:href="#mc229a40b0c" y="252"/>
      </g>
     </g>
    </g>
    <g id="xtick_46">
     <g id="line2d_46">
      <g>
       <use style="stroke:#000000;stroke-width:0.6;" x="256.2292" xlink:href="#mc229a40b0c" y="252"/>
      </g>
     </g>
    </g>
    <g id="xtick_47">
     <g id="line2d_47">
      <g>
       <use style="stroke:#000000;stroke-width:0.6;" x="263.88574" xlink:href="#mc229a40b0c" y="252"/>
      </g>
     </g>
    </g>
    <g id="xtick_48">
     <g id="line2d_48">
      <g>
       <use style="stroke:#000000;stroke-width:0.6;" x="269.318141" xlink:href="#mc229a40b0c" y="252"/>
      </g>
     </g>
    </g>
    <g id="xtick_49">
     <g id="line2d_49">
      <g>
       <use style="stroke:#000000;stroke-width:0.6;" x="273.531839" xlink:href="#mc229a40b0c" y="252"/>
      </g>
     </g>
    </g>
    <g id="xtick_50">
     <g id="line2d_50">
      <g>
       <use style="stroke:#000000;stroke-width:0.6;" x="276.97468" xlink:href="#mc229a40b0c" y="252"/>
      </g>
     </g>
    </g>
    <g id="xtick_51">
     <g id="line2d_51">
      <g>
       <use style="stroke:#000000;stroke-width:0.6;" x="279.885562" xlink:href="#mc229a40b0c" y="252"/>
      </g>
     </g>
    </g>
    <g id="xtick_52">
     <g id="line2d_52">
      <g>
       <use style="stroke:#000000;stroke-width:0.6;" x="282.407082" xlink:href="#mc229a40b0c" y="252"/>
      </g>
     </g>
    </g>
    <g id="xtick_53">
     <g id="line2d_53">
      <g>
       <use style="stroke:#000000;stroke-width:0.6;" x="284.63122" xlink:href="#mc229a40b0c" y="252"/>
      </g>
     </g>
    </g>
    <g id="xtick_54">
     <g id="line2d_54">
      <g>
       <use style="stroke:#000000;stroke-width:0.6;" x="299.70972" xlink:href="#mc229a40b0c" y="252"/>
      </g>
     </g>
    </g>
    <g id="xtick_55">
     <g id="line2d_55">
      <g>
       <use style="stroke:#000000;stroke-width:0.6;" x="307.366259" xlink:href="#mc229a40b0c" y="252"/>
      </g>
     </g>
    </g>
    <g id="xtick_56">
     <g id="line2d_56">
      <g>
       <use style="stroke:#000000;stroke-width:0.6;" x="312.79866" xlink:href="#mc229a40b0c" y="252"/>
      </g>
     </g>
    </g>
    <g id="xtick_57">
     <g id="line2d_57">
      <g>
       <use style="stroke:#000000;stroke-width:0.6;" x="317.012358" xlink:href="#mc229a40b0c" y="252"/>
      </g>
     </g>
    </g>
    <g id="xtick_58">
     <g id="line2d_58">
      <g>
       <use style="stroke:#000000;stroke-width:0.6;" x="320.4552" xlink:href="#mc229a40b0c" y="252"/>
      </g>
     </g>
    </g>
    <g id="xtick_59">
     <g id="line2d_59">
      <g>
       <use style="stroke:#000000;stroke-width:0.6;" x="323.366081" xlink:href="#mc229a40b0c" y="252"/>
      </g>
     </g>
    </g>
    <g id="xtick_60">
     <g id="line2d_60">
      <g>
       <use style="stroke:#000000;stroke-width:0.6;" x="325.887601" xlink:href="#mc229a40b0c" y="252"/>
      </g>
     </g>
    </g>
    <g id="xtick_61">
     <g id="line2d_61">
      <g>
       <use style="stroke:#000000;stroke-width:0.6;" x="328.111739" xlink:href="#mc229a40b0c" y="252"/>
      </g>
     </g>
    </g>
    <g id="xtick_62">
     <g id="line2d_62">
      <g>
       <use style="stroke:#000000;stroke-width:0.6;" x="343.190239" xlink:href="#mc229a40b0c" y="252"/>
      </g>
     </g>
    </g>
    <g id="xtick_63">
     <g id="line2d_63">
      <g>
       <use style="stroke:#000000;stroke-width:0.6;" x="350.846779" xlink:href="#mc229a40b0c" y="252"/>
      </g>
     </g>
    </g>
    <g id="xtick_64">
     <g id="line2d_64">
      <g>
       <use style="stroke:#000000;stroke-width:0.6;" x="356.27918" xlink:href="#mc229a40b0c" y="252"/>
      </g>
     </g>
    </g>
    <g id="xtick_65">
     <g id="line2d_65">
      <g>
       <use style="stroke:#000000;stroke-width:0.6;" x="360.492878" xlink:href="#mc229a40b0c" y="252"/>
      </g>
     </g>
    </g>
    <g id="xtick_66">
     <g id="line2d_66">
      <g>
       <use style="stroke:#000000;stroke-width:0.6;" x="363.935719" xlink:href="#mc229a40b0c" y="252"/>
      </g>
     </g>
    </g>
    <g id="xtick_67">
     <g id="line2d_67">
      <g>
       <use style="stroke:#000000;stroke-width:0.6;" x="366.8466" xlink:href="#mc229a40b0c" y="252"/>
      </g>
     </g>
    </g>
    <g id="xtick_68">
     <g id="line2d_68">
      <g>
       <use style="stroke:#000000;stroke-width:0.6;" x="369.36812" xlink:href="#mc229a40b0c" y="252"/>
      </g>
     </g>
    </g>
    <g id="xtick_69">
     <g id="line2d_69">
      <g>
       <use style="stroke:#000000;stroke-width:0.6;" x="371.592259" xlink:href="#mc229a40b0c" y="252"/>
      </g>
     </g>
    </g>
    <g id="xtick_70">
     <g id="line2d_70">
      <g>
       <use style="stroke:#000000;stroke-width:0.6;" x="386.670759" xlink:href="#mc229a40b0c" y="252"/>
      </g>
     </g>
    </g>
    <g id="text_9">
     <!-- Delta t -->
     <defs>
      <path d="M 19.671875 64.796875 
L 19.671875 8.109375 
L 31.59375 8.109375 
Q 46.6875 8.109375 53.6875 14.9375 
Q 60.6875 21.78125 60.6875 36.53125 
Q 60.6875 51.171875 53.6875 57.984375 
Q 46.6875 64.796875 31.59375 64.796875 
z
M 9.8125 72.90625 
L 30.078125 72.90625 
Q 51.265625 72.90625 61.171875 64.09375 
Q 71.09375 55.28125 71.09375 36.53125 
Q 71.09375 17.671875 61.125 8.828125 
Q 51.171875 0 30.078125 0 
L 9.8125 0 
z
" id="DejaVuSans-44"/>
      <path d="M 56.203125 29.59375 
L 56.203125 25.203125 
L 14.890625 25.203125 
Q 15.484375 15.921875 20.484375 11.0625 
Q 25.484375 6.203125 34.421875 6.203125 
Q 39.59375 6.203125 44.453125 7.46875 
Q 49.3125 8.734375 54.109375 11.28125 
L 54.109375 2.78125 
Q 49.265625 0.734375 44.1875 -0.34375 
Q 39.109375 -1.421875 33.890625 -1.421875 
Q 20.796875 -1.421875 13.15625 6.1875 
Q 5.515625 13.8125 5.515625 26.8125 
Q 5.515625 40.234375 12.765625 48.109375 
Q 20.015625 56 32.328125 56 
Q 43.359375 56 49.78125 48.890625 
Q 56.203125 41.796875 56.203125 29.59375 
z
M 47.21875 32.234375 
Q 47.125 39.59375 43.09375 43.984375 
Q 39.0625 48.390625 32.421875 48.390625 
Q 24.90625 48.390625 20.390625 44.140625 
Q 15.875 39.890625 15.1875 32.171875 
z
" id="DejaVuSans-65"/>
      <path d="M 9.421875 75.984375 
L 18.40625 75.984375 
L 18.40625 0 
L 9.421875 0 
z
" id="DejaVuSans-6c"/>
      <path d="M 18.3125 70.21875 
L 18.3125 54.6875 
L 36.8125 54.6875 
L 36.8125 47.703125 
L 18.3125 47.703125 
L 18.3125 18.015625 
Q 18.3125 11.328125 20.140625 9.421875 
Q 21.96875 7.515625 27.59375 7.515625 
L 36.8125 7.515625 
L 36.8125 0 
L 27.59375 0 
Q 17.1875 0 13.234375 3.875 
Q 9.28125 7.765625 9.28125 18.015625 
L 9.28125 47.703125 
L 2.6875 47.703125 
L 2.6875 54.6875 
L 9.28125 54.6875 
L 9.28125 70.21875 
z
" id="DejaVuSans-74"/>
      <path d="M 34.28125 27.484375 
Q 23.390625 27.484375 19.1875 25 
Q 14.984375 22.515625 14.984375 16.5 
Q 14.984375 11.71875 18.140625 8.90625 
Q 21.296875 6.109375 26.703125 6.109375 
Q 34.1875 6.109375 38.703125 11.40625 
Q 43.21875 16.703125 43.21875 25.484375 
L 43.21875 27.484375 
z
M 52.203125 31.203125 
L 52.203125 0 
L 43.21875 0 
L 43.21875 8.296875 
Q 40.140625 3.328125 35.546875 0.953125 
Q 30.953125 -1.421875 24.3125 -1.421875 
Q 15.921875 -1.421875 10.953125 3.296875 
Q 6 8.015625 6 15.921875 
Q 6 25.140625 12.171875 29.828125 
Q 18.359375 34.515625 30.609375 34.515625 
L 43.21875 34.515625 
L 43.21875 35.40625 
Q 43.21875 41.609375 39.140625 45 
Q 35.0625 48.390625 27.6875 48.390625 
Q 23 48.390625 18.546875 47.265625 
Q 14.109375 46.140625 10.015625 43.890625 
L 10.015625 52.203125 
Q 14.9375 54.109375 19.578125 55.046875 
Q 24.21875 56 28.609375 56 
Q 40.484375 56 46.34375 49.84375 
Q 52.203125 43.703125 52.203125 31.203125 
z
" id="DejaVuSans-61"/>
      <path id="DejaVuSans-20"/>
     </defs>
     <g transform="translate(204.510938 280.276563)scale(0.1 -0.1)">
      <use xlink:href="#DejaVuSans-44"/>
      <use x="77.001953" xlink:href="#DejaVuSans-65"/>
      <use x="138.525391" xlink:href="#DejaVuSans-6c"/>
      <use x="166.308594" xlink:href="#DejaVuSans-74"/>
      <use x="205.517578" xlink:href="#DejaVuSans-61"/>
      <use x="266.796875" xlink:href="#DejaVuSans-20"/>
      <use x="298.583984" xlink:href="#DejaVuSans-74"/>
     </g>
    </g>
   </g>
   <g id="matplotlib.axis_2">
    <g id="ytick_1">
     <g id="line2d_71">
      <defs>
       <path d="M 0 0 
L -3.5 0 
" id="m18c72bd7a8" style="stroke:#000000;stroke-width:0.8;"/>
      </defs>
      <g>
       <use style="stroke:#000000;stroke-width:0.8;" x="54" xlink:href="#m18c72bd7a8" y="230.236942"/>
      </g>
     </g>
     <g id="text_10">
      <!-- $\mathdefault{10^{-3}}$ -->
      <g transform="translate(23.5 234.036161)scale(0.1 -0.1)">
       <use transform="translate(0 0.765625)" xlink:href="#DejaVuSans-31"/>
       <use transform="translate(63.623047 0.765625)" xlink:href="#DejaVuSans-30"/>
       <use transform="translate(128.203125 39.046875)scale(0.7)" xlink:href="#DejaVuSans-2212"/>
       <use transform="translate(186.855469 39.046875)scale(0.7)" xlink:href="#DejaVuSans-33"/>
      </g>
     </g>
    </g>
    <g id="ytick_2">
     <g id="line2d_72">
      <g>
       <use style="stroke:#000000;stroke-width:0.8;" x="54" xlink:href="#m18c72bd7a8" y="196.575946"/>
      </g>
     </g>
     <g id="text_11">
      <!-- $\mathdefault{10^{-2}}$ -->
      <g transform="translate(23.5 200.375164)scale(0.1 -0.1)">
       <use transform="translate(0 0.765625)" xlink:href="#DejaVuSans-31"/>
       <use transform="translate(63.623047 0.765625)" xlink:href="#DejaVuSans-30"/>
       <use transform="translate(128.203125 39.046875)scale(0.7)" xlink:href="#DejaVuSans-2212"/>
       <use transform="translate(186.855469 39.046875)scale(0.7)" xlink:href="#DejaVuSans-32"/>
      </g>
     </g>
    </g>
    <g id="ytick_3">
     <g id="line2d_73">
      <g>
       <use style="stroke:#000000;stroke-width:0.8;" x="54" xlink:href="#m18c72bd7a8" y="162.914949"/>
      </g>
     </g>
     <g id="text_12">
      <!-- $\mathdefault{10^{-1}}$ -->
      <g transform="translate(23.5 166.714168)scale(0.1 -0.1)">
       <use transform="translate(0 0.684375)" xlink:href="#DejaVuSans-31"/>
       <use transform="translate(63.623047 0.684375)" xlink:href="#DejaVuSans-30"/>
       <use transform="translate(128.203125 38.965625)scale(0.7)" xlink:href="#DejaVuSans-2212"/>
       <use transform="translate(186.855469 38.965625)scale(0.7)" xlink:href="#DejaVuSans-31"/>
      </g>
     </g>
    </g>
    <g id="ytick_4">
     <g id="line2d_74">
      <g>
       <use style="stroke:#000000;stroke-width:0.8;" x="54" xlink:href="#m18c72bd7a8" y="129.253952"/>
      </g>
     </g>
     <g id="text_13">
      <!-- $\mathdefault{10^{0}}$ -->
      <g transform="translate(29.4 133.053171)scale(0.1 -0.1)">
       <use transform="translate(0 0.765625)" xlink:href="#DejaVuSans-31"/>
       <use transform="translate(63.623047 0.765625)" xlink:href="#DejaVuSans-30"/>
       <use transform="translate(128.203125 39.046875)scale(0.7)" xlink:href="#DejaVuSans-30"/>
      </g>
     </g>
    </g>
    <g id="ytick_5">
     <g id="line2d_75">
      <g>
       <use style="stroke:#000000;stroke-width:0.8;" x="54" xlink:href="#m18c72bd7a8" y="95.592955"/>
      </g>
     </g>
     <g id="text_14">
      <!-- $\mathdefault{10^{1}}$ -->
      <g transform="translate(29.4 99.392174)scale(0.1 -0.1)">
       <use transform="translate(0 0.684375)" xlink:href="#DejaVuSans-31"/>
       <use transform="translate(63.623047 0.684375)" xlink:href="#DejaVuSans-30"/>
       <use transform="translate(128.203125 38.965625)scale(0.7)" xlink:href="#DejaVuSans-31"/>
      </g>
     </g>
    </g>
    <g id="ytick_6">
     <g id="line2d_76">
      <g>
       <use style="stroke:#000000;stroke-width:0.8;" x="54" xlink:href="#m18c72bd7a8" y="61.931959"/>
      </g>
     </g>
     <g id="text_15">
      <!-- $\mathdefault{10^{2}}$ -->
      <g transform="translate(29.4 65.731178)scale(0.1 -0.1)">
       <use transform="translate(0 0.765625)" xlink:href="#DejaVuSans-31"/>
       <use transform="translate(63.623047 0.765625)" xlink:href="#DejaVuSans-30"/>
       <use transform="translate(128.203125 39.046875)scale(0.7)" xlink:href="#DejaVuSans-32"/>
      </g>
     </g>
    </g>
    <g id="ytick_7">
     <g id="line2d_77">
      <defs>
       <path d="M 0 0 
L -2 0 
" id="m26ef0e1c00" style="stroke:#000000;stroke-width:0.6;"/>
      </defs>
      <g>
       <use style="stroke:#000000;stroke-width:0.6;" x="54" xlink:href="#m26ef0e1c00" y="247.837562"/>
      </g>
     </g>
    </g>
    <g id="ytick_8">
     <g id="line2d_78">
      <g>
       <use style="stroke:#000000;stroke-width:0.6;" x="54" xlink:href="#m26ef0e1c00" y="243.632"/>
      </g>
     </g>
    </g>
    <g id="ytick_9">
     <g id="line2d_79">
      <g>
       <use style="stroke:#000000;stroke-width:0.6;" x="54" xlink:href="#m26ef0e1c00" y="240.369912"/>
      </g>
     </g>
    </g>
    <g id="ytick_10">
     <g id="line2d_80">
      <g>
       <use style="stroke:#000000;stroke-width:0.6;" x="54" xlink:href="#m26ef0e1c00" y="237.704592"/>
      </g>
     </g>
    </g>
    <g id="ytick_11">
     <g id="line2d_81">
      <g>
       <use style="stroke:#000000;stroke-width:0.6;" x="54" xlink:href="#m26ef0e1c00" y="235.451097"/>
      </g>
     </g>
    </g>
    <g id="ytick_12">
     <g id="line2d_82">
      <g>
       <use style="stroke:#000000;stroke-width:0.6;" x="54" xlink:href="#m26ef0e1c00" y="233.49903"/>
      </g>
     </g>
    </g>
    <g id="ytick_13">
     <g id="line2d_83">
      <g>
       <use style="stroke:#000000;stroke-width:0.6;" x="54" xlink:href="#m26ef0e1c00" y="231.777185"/>
      </g>
     </g>
    </g>
    <g id="ytick_14">
     <g id="line2d_84">
      <g>
       <use style="stroke:#000000;stroke-width:0.6;" x="54" xlink:href="#m26ef0e1c00" y="220.103973"/>
      </g>
     </g>
    </g>
    <g id="ytick_15">
     <g id="line2d_85">
      <g>
       <use style="stroke:#000000;stroke-width:0.6;" x="54" xlink:href="#m26ef0e1c00" y="214.176565"/>
      </g>
     </g>
    </g>
    <g id="ytick_16">
     <g id="line2d_86">
      <g>
       <use style="stroke:#000000;stroke-width:0.6;" x="54" xlink:href="#m26ef0e1c00" y="209.971003"/>
      </g>
     </g>
    </g>
    <g id="ytick_17">
     <g id="line2d_87">
      <g>
       <use style="stroke:#000000;stroke-width:0.6;" x="54" xlink:href="#m26ef0e1c00" y="206.708915"/>
      </g>
     </g>
    </g>
    <g id="ytick_18">
     <g id="line2d_88">
      <g>
       <use style="stroke:#000000;stroke-width:0.6;" x="54" xlink:href="#m26ef0e1c00" y="204.043596"/>
      </g>
     </g>
    </g>
    <g id="ytick_19">
     <g id="line2d_89">
      <g>
       <use style="stroke:#000000;stroke-width:0.6;" x="54" xlink:href="#m26ef0e1c00" y="201.7901"/>
      </g>
     </g>
    </g>
    <g id="ytick_20">
     <g id="line2d_90">
      <g>
       <use style="stroke:#000000;stroke-width:0.6;" x="54" xlink:href="#m26ef0e1c00" y="199.838033"/>
      </g>
     </g>
    </g>
    <g id="ytick_21">
     <g id="line2d_91">
      <g>
       <use style="stroke:#000000;stroke-width:0.6;" x="54" xlink:href="#m26ef0e1c00" y="198.116188"/>
      </g>
     </g>
    </g>
    <g id="ytick_22">
     <g id="line2d_92">
      <g>
       <use style="stroke:#000000;stroke-width:0.6;" x="54" xlink:href="#m26ef0e1c00" y="186.442976"/>
      </g>
     </g>
    </g>
    <g id="ytick_23">
     <g id="line2d_93">
      <g>
       <use style="stroke:#000000;stroke-width:0.6;" x="54" xlink:href="#m26ef0e1c00" y="180.515569"/>
      </g>
     </g>
    </g>
    <g id="ytick_24">
     <g id="line2d_94">
      <g>
       <use style="stroke:#000000;stroke-width:0.6;" x="54" xlink:href="#m26ef0e1c00" y="176.310006"/>
      </g>
     </g>
    </g>
    <g id="ytick_25">
     <g id="line2d_95">
      <g>
       <use style="stroke:#000000;stroke-width:0.6;" x="54" xlink:href="#m26ef0e1c00" y="173.047919"/>
      </g>
     </g>
    </g>
    <g id="ytick_26">
     <g id="line2d_96">
      <g>
       <use style="stroke:#000000;stroke-width:0.6;" x="54" xlink:href="#m26ef0e1c00" y="170.382599"/>
      </g>
     </g>
    </g>
    <g id="ytick_27">
     <g id="line2d_97">
      <g>
       <use style="stroke:#000000;stroke-width:0.6;" x="54" xlink:href="#m26ef0e1c00" y="168.129103"/>
      </g>
     </g>
    </g>
    <g id="ytick_28">
     <g id="line2d_98">
      <g>
       <use style="stroke:#000000;stroke-width:0.6;" x="54" xlink:href="#m26ef0e1c00" y="166.177037"/>
      </g>
     </g>
    </g>
    <g id="ytick_29">
     <g id="line2d_99">
      <g>
       <use style="stroke:#000000;stroke-width:0.6;" x="54" xlink:href="#m26ef0e1c00" y="164.455192"/>
      </g>
     </g>
    </g>
    <g id="ytick_30">
     <g id="line2d_100">
      <g>
       <use style="stroke:#000000;stroke-width:0.6;" x="54" xlink:href="#m26ef0e1c00" y="152.781979"/>
      </g>
     </g>
    </g>
    <g id="ytick_31">
     <g id="line2d_101">
      <g>
       <use style="stroke:#000000;stroke-width:0.6;" x="54" xlink:href="#m26ef0e1c00" y="146.854572"/>
      </g>
     </g>
    </g>
    <g id="ytick_32">
     <g id="line2d_102">
      <g>
       <use style="stroke:#000000;stroke-width:0.6;" x="54" xlink:href="#m26ef0e1c00" y="142.64901"/>
      </g>
     </g>
    </g>
    <g id="ytick_33">
     <g id="line2d_103">
      <g>
       <use style="stroke:#000000;stroke-width:0.6;" x="54" xlink:href="#m26ef0e1c00" y="139.386922"/>
      </g>
     </g>
    </g>
    <g id="ytick_34">
     <g id="line2d_104">
      <g>
       <use style="stroke:#000000;stroke-width:0.6;" x="54" xlink:href="#m26ef0e1c00" y="136.721602"/>
      </g>
     </g>
    </g>
    <g id="ytick_35">
     <g id="line2d_105">
      <g>
       <use style="stroke:#000000;stroke-width:0.6;" x="54" xlink:href="#m26ef0e1c00" y="134.468107"/>
      </g>
     </g>
    </g>
    <g id="ytick_36">
     <g id="line2d_106">
      <g>
       <use style="stroke:#000000;stroke-width:0.6;" x="54" xlink:href="#m26ef0e1c00" y="132.51604"/>
      </g>
     </g>
    </g>
    <g id="ytick_37">
     <g id="line2d_107">
      <g>
       <use style="stroke:#000000;stroke-width:0.6;" x="54" xlink:href="#m26ef0e1c00" y="130.794195"/>
      </g>
     </g>
    </g>
    <g id="ytick_38">
     <g id="line2d_108">
      <g>
       <use style="stroke:#000000;stroke-width:0.6;" x="54" xlink:href="#m26ef0e1c00" y="119.120983"/>
      </g>
     </g>
    </g>
    <g id="ytick_39">
     <g id="line2d_109">
      <g>
       <use style="stroke:#000000;stroke-width:0.6;" x="54" xlink:href="#m26ef0e1c00" y="113.193575"/>
      </g>
     </g>
    </g>
    <g id="ytick_40">
     <g id="line2d_110">
      <g>
       <use style="stroke:#000000;stroke-width:0.6;" x="54" xlink:href="#m26ef0e1c00" y="108.988013"/>
      </g>
     </g>
    </g>
    <g id="ytick_41">
     <g id="line2d_111">
      <g>
       <use style="stroke:#000000;stroke-width:0.6;" x="54" xlink:href="#m26ef0e1c00" y="105.725925"/>
      </g>
     </g>
    </g>
    <g id="ytick_42">
     <g id="line2d_112">
      <g>
       <use style="stroke:#000000;stroke-width:0.6;" x="54" xlink:href="#m26ef0e1c00" y="103.060606"/>
      </g>
     </g>
    </g>
    <g id="ytick_43">
     <g id="line2d_113">
      <g>
       <use style="stroke:#000000;stroke-width:0.6;" x="54" xlink:href="#m26ef0e1c00" y="100.80711"/>
      </g>
     </g>
    </g>
    <g id="ytick_44">
     <g id="line2d_114">
      <g>
       <use style="stroke:#000000;stroke-width:0.6;" x="54" xlink:href="#m26ef0e1c00" y="98.855043"/>
      </g>
     </g>
    </g>
    <g id="ytick_45">
     <g id="line2d_115">
      <g>
       <use style="stroke:#000000;stroke-width:0.6;" x="54" xlink:href="#m26ef0e1c00" y="97.133198"/>
      </g>
     </g>
    </g>
    <g id="ytick_46">
     <g id="line2d_116">
      <g>
       <use style="stroke:#000000;stroke-width:0.6;" x="54" xlink:href="#m26ef0e1c00" y="85.459986"/>
      </g>
     </g>
    </g>
    <g id="ytick_47">
     <g id="line2d_117">
      <g>
       <use style="stroke:#000000;stroke-width:0.6;" x="54" xlink:href="#m26ef0e1c00" y="79.532579"/>
      </g>
     </g>
    </g>
    <g id="ytick_48">
     <g id="line2d_118">
      <g>
       <use style="stroke:#000000;stroke-width:0.6;" x="54" xlink:href="#m26ef0e1c00" y="75.327016"/>
      </g>
     </g>
    </g>
    <g id="ytick_49">
     <g id="line2d_119">
      <g>
       <use style="stroke:#000000;stroke-width:0.6;" x="54" xlink:href="#m26ef0e1c00" y="72.064928"/>
      </g>
     </g>
    </g>
    <g id="ytick_50">
     <g id="line2d_120">
      <g>
       <use style="stroke:#000000;stroke-width:0.6;" x="54" xlink:href="#m26ef0e1c00" y="69.399609"/>
      </g>
     </g>
    </g>
    <g id="ytick_51">
     <g id="line2d_121">
      <g>
       <use style="stroke:#000000;stroke-width:0.6;" x="54" xlink:href="#m26ef0e1c00" y="67.146113"/>
      </g>
     </g>
    </g>
    <g id="ytick_52">
     <g id="line2d_122">
      <g>
       <use style="stroke:#000000;stroke-width:0.6;" x="54" xlink:href="#m26ef0e1c00" y="65.194046"/>
      </g>
     </g>
    </g>
    <g id="ytick_53">
     <g id="line2d_123">
      <g>
       <use style="stroke:#000000;stroke-width:0.6;" x="54" xlink:href="#m26ef0e1c00" y="63.472202"/>
      </g>
     </g>
    </g>
    <g id="ytick_54">
     <g id="line2d_124">
      <g>
       <use style="stroke:#000000;stroke-width:0.6;" x="54" xlink:href="#m26ef0e1c00" y="51.798989"/>
      </g>
     </g>
    </g>
    <g id="ytick_55">
     <g id="line2d_125">
      <g>
       <use style="stroke:#000000;stroke-width:0.6;" x="54" xlink:href="#m26ef0e1c00" y="45.871582"/>
      </g>
     </g>
    </g>
    <g id="ytick_56">
     <g id="line2d_126">
      <g>
       <use style="stroke:#000000;stroke-width:0.6;" x="54" xlink:href="#m26ef0e1c00" y="41.666019"/>
      </g>
     </g>
    </g>
    <g id="ytick_57">
     <g id="line2d_127">
      <g>
       <use style="stroke:#000000;stroke-width:0.6;" x="54" xlink:href="#m26ef0e1c00" y="38.403932"/>
      </g>
     </g>
    </g>
    <g id="ytick_58">
     <g id="line2d_128">
      <g>
       <use style="stroke:#000000;stroke-width:0.6;" x="54" xlink:href="#m26ef0e1c00" y="35.738612"/>
      </g>
     </g>
    </g>
    <g id="text_16">
     <!-- Time -->
     <defs>
      <path d="M -0.296875 72.90625 
L 61.375 72.90625 
L 61.375 64.59375 
L 35.5 64.59375 
L 35.5 0 
L 25.59375 0 
L 25.59375 64.59375 
L -0.296875 64.59375 
z
" id="DejaVuSans-54"/>
      <path d="M 9.421875 54.6875 
L 18.40625 54.6875 
L 18.40625 0 
L 9.421875 0 
z
M 9.421875 75.984375 
L 18.40625 75.984375 
L 18.40625 64.59375 
L 9.421875 64.59375 
z
" id="DejaVuSans-69"/>
      <path d="M 52 44.1875 
Q 55.375 50.25 60.0625 53.125 
Q 64.75 56 71.09375 56 
Q 79.640625 56 84.28125 50.015625 
Q 88.921875 44.046875 88.921875 33.015625 
L 88.921875 0 
L 79.890625 0 
L 79.890625 32.71875 
Q 79.890625 40.578125 77.09375 44.375 
Q 74.3125 48.1875 68.609375 48.1875 
Q 61.625 48.1875 57.5625 43.546875 
Q 53.515625 38.921875 53.515625 30.90625 
L 53.515625 0 
L 44.484375 0 
L 44.484375 32.71875 
Q 44.484375 40.625 41.703125 44.40625 
Q 38.921875 48.1875 33.109375 48.1875 
Q 26.21875 48.1875 22.15625 43.53125 
Q 18.109375 38.875 18.109375 30.90625 
L 18.109375 0 
L 9.078125 0 
L 9.078125 54.6875 
L 18.109375 54.6875 
L 18.109375 46.1875 
Q 21.1875 51.21875 25.484375 53.609375 
Q 29.78125 56 35.6875 56 
Q 41.65625 56 45.828125 52.96875 
Q 50 49.953125 52 44.1875 
z
" id="DejaVuSans-6d"/>
     </defs>
     <g transform="translate(17.420313 155.6675)rotate(-90)scale(0.1 -0.1)">
      <use xlink:href="#DejaVuSans-54"/>
      <use x="61.037109" xlink:href="#DejaVuSans-69"/>
      <use x="88.820312" xlink:href="#DejaVuSans-6d"/>
      <use x="186.232422" xlink:href="#DejaVuSans-65"/>
     </g>
    </g>
   </g>
   <g id="line2d_129">
    <path clip-path="url(#p423237a792)" d="M 69.218182 44.443636 
L 69.828129 45.046567 
L 70.438076 45.509916 
L 74.707706 48.792579 
L 80.197231 53.118069 
L 81.417125 53.926702 
L 85.686755 57.259472 
L 90.566333 60.918961 
L 91.17628 60.394117 
L 91.786227 58.039946 
L 92.396174 60.26921 
L 93.006121 60.164223 
L 93.616069 62.513323 
L 94.226016 63.148283 
L 94.835963 63.13204 
L 95.44591 64.673707 
L 96.055857 65.145271 
L 96.665804 65.026256 
L 97.885699 65.284349 
L 99.105593 66.20015 
L 99.71554 66.905338 
L 100.325487 68.39865 
L 100.935435 68.863598 
L 101.545382 68.121791 
L 102.765276 69.059121 
L 103.98517 69.827502 
L 104.595118 70.473093 
L 105.205065 70.813431 
L 105.815012 71.388009 
L 107.034906 72.258448 
L 108.254801 73.339524 
L 108.864748 74.596962 
L 109.474695 75.294722 
L 110.084642 75.042013 
L 110.694589 75.161391 
L 111.304536 75.533965 
L 111.914484 76.089518 
L 112.524431 76.490723 
L 113.134378 77.167808 
L 114.354272 77.811675 
L 115.574167 78.856305 
L 116.184114 80.620316 
L 116.794061 79.964682 
L 117.404008 80.31244 
L 118.013955 81.039972 
L 118.623902 81.22542 
L 120.453744 82.559879 
L 121.063691 83.180504 
L 121.673638 83.56939 
L 122.893533 84.508842 
L 125.943268 86.86731 
L 127.163163 87.611356 
L 127.77311 88.193316 
L 128.383057 88.53937 
L 128.993004 89.257543 
L 130.212899 90.002717 
L 130.822846 90.658034 
L 133.872582 93.070649 
L 134.482529 93.788915 
L 135.092476 93.971274 
L 136.922317 95.414332 
L 138.752159 96.851802 
L 139.972053 97.800667 
L 141.801895 99.202158 
L 142.411842 97.588278 
L 143.021789 99.90758 
L 143.631736 100.644447 
L 144.241683 101.068844 
L 145.461578 102.041699 
L 146.071525 101.564759 
L 146.681472 102.898071 
L 147.291419 103.371716 
L 147.901366 104.017147 
L 148.511314 104.482521 
L 149.121261 104.80037 
L 149.731208 105.31308 
L 150.341155 105.659179 
L 151.561049 106.767542 
L 152.170997 107.051426 
L 153.390891 108.206272 
L 154.000838 108.529025 
L 157.660521 111.56309 
L 158.880415 112.597542 
L 159.490363 112.948709 
L 160.710257 113.922169 
L 161.320204 114.296977 
L 162.540098 115.370825 
L 163.150046 115.638863 
L 164.36994 116.742005 
L 164.979887 118.358282 
L 165.589834 118.6145 
L 166.199781 117.755321 
L 166.809729 118.473189 
L 167.419676 118.734934 
L 168.029623 119.188448 
L 169.249517 120.456301 
L 170.469412 121.083521 
L 171.689306 122.248861 
L 172.299253 122.879168 
L 173.519147 123.747964 
L 174.129095 124.501271 
L 174.739042 124.973154 
L 175.348989 126.412374 
L 175.958936 127.180737 
L 176.568883 127.631548 
L 177.17883 127.592014 
L 178.398725 129.082126 
L 181.448461 131.431628 
L 182.058408 131.526001 
L 182.668355 132.199363 
L 183.278302 131.348473 
L 183.888249 133.191356 
L 184.498196 131.872029 
L 185.108144 133.407906 
L 185.718091 133.606033 
L 186.328038 134.941588 
L 188.157879 136.361045 
L 188.767827 135.7117 
L 189.377774 136.92227 
L 189.987721 136.812121 
L 190.597668 137.483917 
L 191.207615 137.522309 
L 193.037457 139.187983 
L 193.647404 139.597011 
L 194.257351 139.793296 
L 194.867298 140.238737 
L 195.477245 140.068755 
L 196.087193 140.823366 
L 196.69714 141.135785 
L 197.307087 142.054389 
L 197.917034 142.355736 
L 198.526981 142.980271 
L 199.136928 143.222204 
L 199.746876 144.008901 
L 200.356823 144.539697 
L 200.96677 144.831731 
L 201.576717 145.625524 
L 202.186664 145.75588 
L 203.406559 146.916093 
L 204.016506 146.984481 
L 204.626453 147.798133 
L 205.846347 148.413248 
L 207.066242 149.746517 
L 208.286136 150.166906 
L 208.896083 150.601409 
L 209.50603 151.656897 
L 210.115977 151.449701 
L 210.725925 152.453178 
L 211.335872 153.001151 
L 211.945819 153.222244 
L 212.555766 154.086006 
L 213.165713 153.687897 
L 213.77566 155.157146 
L 214.385608 155.033148 
L 214.995555 155.335443 
L 215.605502 156.005162 
L 216.215449 155.511025 
L 216.825396 157.288162 
L 217.435343 157.596193 
L 218.045291 158.488801 
L 218.655238 158.428903 
L 219.265185 158.009498 
L 220.485079 160.151107 
L 221.095026 160.394538 
L 221.704974 160.769474 
L 222.314921 161.616596 
L 224.144762 162.162808 
L 225.364657 164.094803 
L 225.974604 163.928149 
L 226.584551 164.497518 
L 227.194498 164.911481 
L 227.804445 164.743918 
L 228.414392 166.13837 
L 229.02434 166.792494 
L 229.634287 166.802858 
L 230.244234 167.179221 
L 230.854181 167.387158 
L 231.464128 168.19519 
L 232.684023 169.387721 
L 233.29397 170.115245 
L 233.903917 170.222238 
L 234.513864 170.951855 
L 235.123811 170.711353 
L 235.733758 171.737961 
L 236.343706 171.468573 
L 236.953653 172.847096 
L 237.5636 172.735313 
L 238.173547 173.745719 
L 238.783494 173.913528 
L 239.393441 173.913454 
L 240.003389 174.227433 
L 240.613336 175.215857 
L 241.223283 175.538346 
L 241.83323 175.732965 
L 242.443177 175.733133 
L 243.053124 177.589913 
L 243.663072 177.836019 
L 244.273019 178.863988 
L 244.882966 178.43433 
L 245.492913 178.839209 
L 246.10286 179.558456 
L 246.712807 179.788776 
L 247.932702 181.25486 
L 248.542649 182.599609 
L 249.152596 181.197657 
L 249.762543 181.514021 
L 250.37249 182.290589 
L 250.982438 183.470886 
L 251.592385 182.853007 
L 252.202332 183.737817 
L 252.812279 184.355038 
L 253.422226 184.012073 
L 254.032173 185.309183 
L 254.642121 186.05571 
L 255.252068 185.372212 
L 255.862015 187.500884 
L 256.471962 186.815224 
L 257.081909 187.110647 
L 257.691856 187.108275 
L 258.301804 189.216407 
L 258.911751 188.355725 
L 259.521698 189.216407 
L 260.131645 188.774417 
L 260.741592 191.160831 
L 261.351539 192.085387 
L 261.961487 192.139836 
L 262.571434 192.701395 
L 263.181381 192.701662 
L 263.791328 193.343388 
L 264.401275 194.494808 
L 265.011222 192.763024 
L 265.62117 193.871656 
L 266.231117 195.825295 
L 266.841064 195.212233 
L 267.451011 195.146026 
L 268.060958 197.371683 
L 268.670905 197.202267 
L 269.280853 196.620641 
L 269.8908 196.53767 
L 270.500747 199.799063 
L 271.110694 199.798194 
L 271.720641 197.285083 
L 272.940536 200.634138 
L 273.550483 201.763301 
L 274.770377 196.535932 
L 275.380324 200.749607 
L 275.990271 202.83276 
L 276.600219 202.83383 
L 277.210166 200.742654 
L 277.820113 204.005205 
L 278.43006 205.279312 
L 279.649954 205.27552 
L 280.259902 206.668902 
L 280.869849 202.832225 
L 281.479796 208.209995 
L 282.089743 208.21154 
L 282.69969 208.037216 
L 283.309637 208.209222 
L 284.529532 211.885341 
L 285.139479 210.134169 
L 285.749426 205.276152 
L 286.359373 209.928557 
L 286.96932 209.935509 
L 288.189215 214.139333 
L 288.799162 211.883354 
L 289.409109 214.138174 
L 291.238951 214.132382 
L 291.848898 208.196869 
L 292.458845 214.145128 
L 293.068792 213.868373 
L 293.678739 216.802567 
L 294.288686 212.078308 
L 294.898634 216.802567 
L 295.508581 216.48622 
L 296.118528 220.077174 
L 297.948369 220.06674 
L 298.558317 220.488203 
L 299.168264 219.667234 
L 299.778211 220.061527 
L 300.388158 220.06674 
L 300.998105 209.919003 
L 301.608052 220.091096 
L 302.827947 220.063264 
L 303.437894 224.273462 
L 304.047841 230.203187 
L 304.657788 224.27578 
L 305.267735 220.061527 
L 305.877683 224.273462 
L 306.48763 230.206665 
L 307.097577 230.203187 
L 307.707524 224.26651 
L 308.317471 230.196234 
L 313.197049 230.19971 
L 315.636837 230.19971 
L 316.246784 240.329204 
L 316.856732 240.322254 
L 317.466679 229.774855 
L 318.076626 216.717997 
L 318.686573 230.402752 
L 319.29652 230.192759 
L 319.906467 240.329204 
L 320.516415 230.206665 
L 321.126362 240.308364 
L 321.736309 230.210143 
L 322.346256 240.322254 
L 322.956203 242.045836 
L 323.56615 240.315308 
L 324.176098 239.05199 
L 324.786045 240.343113 
L 325.395992 242.022402 
L 326.005939 238.811919 
M 327.225833 230.399227 
L 327.835781 240.350073 
L 329.665622 240.329204 
L 333.935252 240.364002 
L 335.155147 240.329204 
M 336.375041 242.116364 
L 336.984988 240.343113 
M 340.644671 240.329204 
L 341.254618 240.329204 
M 348.573984 240.183948 
L 349.183931 240.468897 
M 371.14203 240.336157 
" style="fill:none;stroke:#1f77b4;stroke-linecap:square;stroke-width:1.5;"/>
   </g>
   <g id="line2d_130">
    <path clip-path="url(#p423237a792)" d="M 69.218182 72.413792 
L 69.828129 72.994968 
L 70.438076 73.48262 
L 75.927601 77.680561 
L 76.537548 78.056752 
L 77.147495 78.667866 
L 79.587284 80.529007 
L 91.17628 89.470113 
L 91.786227 87.508116 
L 92.396174 86.79205 
L 93.006121 87.569853 
L 93.616069 89.089063 
L 94.226016 91.718625 
L 94.835963 91.551907 
L 95.44591 92.650475 
L 96.665804 93.601968 
L 97.275752 92.878975 
L 97.885699 94.398314 
L 98.495646 93.689781 
L 99.71554 94.943059 
L 100.325487 96.416012 
L 101.545382 97.256031 
L 102.155329 97.168793 
L 102.765276 97.288043 
L 103.98517 98.216944 
L 104.595118 98.305985 
L 105.205065 99.136417 
L 105.815012 99.568626 
L 106.424959 100.177628 
L 107.644853 101.020959 
L 108.254801 101.6566 
L 108.864748 101.920048 
L 109.474695 103.438949 
L 110.084642 103.891496 
L 110.694589 103.295597 
L 111.914484 104.340174 
L 112.524431 104.624166 
L 113.134378 105.182373 
L 113.744325 106.57599 
L 114.354272 105.585189 
L 115.574167 107.547543 
L 116.184114 107.859621 
L 116.794061 109.225925 
L 117.404008 108.495888 
L 118.013955 109.764684 
L 118.623902 109.367793 
L 119.23385 109.978627 
L 119.843797 110.289451 
L 120.453744 110.942977 
L 121.673638 111.607095 
L 122.283585 112.286997 
L 123.50348 112.781787 
L 124.113427 113.743791 
L 124.723374 114.009744 
L 126.553216 115.610944 
L 127.163163 114.746414 
L 127.77311 116.477672 
L 128.383057 117.045618 
L 129.602951 117.761636 
L 130.212899 118.421109 
L 134.482529 121.735675 
L 135.092476 121.726695 
L 135.702423 122.691355 
L 136.31237 122.760861 
L 136.922317 123.622763 
L 138.752159 124.751655 
L 139.362106 125.52649 
L 139.972053 125.975699 
L 140.582 126.610752 
L 141.191948 126.752791 
L 143.631736 128.76867 
L 144.241683 128.990184 
L 144.851631 129.660255 
L 146.681472 130.935033 
L 147.901366 132.231463 
L 148.511314 132.115008 
L 149.121261 133.074322 
L 149.731208 133.401133 
L 150.341155 133.875912 
L 150.951102 134.159484 
L 153.390891 136.144466 
L 154.000838 136.381247 
L 154.610785 137.204884 
L 155.220732 137.203491 
L 156.440627 138.182363 
L 157.050574 139.318774 
L 157.660521 139.598609 
L 158.270468 139.749655 
L 158.880415 140.437158 
L 159.490363 140.710659 
L 160.710257 141.984098 
L 162.540098 143.512558 
L 164.36994 144.900097 
L 164.979887 146.289245 
L 165.589834 146.864383 
L 166.809729 146.383572 
L 167.419676 146.767167 
L 168.029623 146.815578 
L 169.249517 148.992115 
L 169.859464 148.995316 
L 170.469412 149.133956 
L 171.079359 149.59495 
L 172.299253 150.795416 
L 172.9092 151.148222 
L 173.519147 152.275502 
L 174.739042 153.411921 
L 175.348989 153.526538 
L 175.958936 155.118266 
L 177.17883 156.181769 
L 177.788778 156.465468 
L 178.398725 157.131301 
L 179.618619 158.05632 
L 181.448461 159.496909 
L 182.058408 159.777274 
L 183.888249 161.159071 
L 184.498196 161.74556 
L 185.108144 161.682954 
L 185.718091 162.023797 
L 186.328038 161.726718 
L 186.937985 163.619697 
L 187.547932 164.100358 
L 188.767827 164.645973 
L 189.377774 165.463349 
L 189.987721 165.680671 
L 190.597668 165.338209 
L 191.207615 166.137936 
L 191.817562 166.497223 
L 192.42751 166.415025 
L 193.037457 167.64937 
L 193.647404 168.19549 
L 194.257351 167.678405 
L 194.867298 167.974489 
L 195.477245 168.609751 
L 196.087193 167.780535 
L 196.69714 169.2742 
L 197.917034 170.465802 
L 198.526981 170.101677 
L 199.136928 171.483598 
L 199.746876 171.883936 
L 200.356823 172.439534 
L 200.96677 172.58752 
L 201.576717 173.1561 
L 202.186664 174.388133 
L 202.796611 174.403957 
L 203.406559 174.859242 
L 204.016506 174.712746 
L 204.626453 175.57708 
L 205.2364 175.890784 
L 205.846347 176.620443 
L 206.456294 176.619731 
L 207.066242 177.021156 
L 207.676189 177.788605 
L 208.286136 177.811955 
L 209.50603 179.754437 
L 210.115977 180.235501 
L 211.335872 180.72492 
L 211.945819 181.48097 
L 212.555766 182.01845 
L 213.165713 180.944475 
L 214.385608 183.174839 
L 214.995555 183.738686 
L 215.605502 183.436938 
L 216.215449 185.346967 
L 216.825396 182.568826 
L 217.435343 184.718783 
L 218.655238 186.774344 
L 219.875132 187.543474 
L 220.485079 187.500884 
L 221.095026 188.731556 
L 221.704974 189.216828 
L 222.314921 188.824582 
L 222.924868 190.60922 
L 223.534815 191.104388 
L 224.144762 191.058674 
L 224.754709 191.676127 
L 225.364657 191.621636 
L 225.974604 192.14936 
L 226.584551 191.678371 
L 227.194498 193.871366 
L 227.804445 193.875712 
L 228.414392 195.150768 
L 229.02434 194.491181 
L 229.634287 192.637628 
L 230.244234 193.871656 
L 230.854181 194.422738 
L 231.464128 195.828275 
L 232.074075 194.494808 
L 232.684023 196.536975 
L 233.29397 199.0083 
L 233.903917 198.076252 
L 234.513864 198.08166 
L 235.123811 199.799497 
L 236.953653 199.900657 
L 237.5636 201.754358 
L 238.173547 201.725082 
L 238.783494 201.865543 
L 239.393441 204.005784 
L 240.003389 199.800801 
L 240.613336 200.734313 
L 241.223283 202.834364 
L 242.443177 205.274256 
L 243.053124 202.819932 
L 243.663072 203.993043 
L 244.273019 202.831691 
L 244.882966 206.657089 
L 245.492913 208.21463 
L 246.10286 208.034926 
L 246.712807 208.031111 
L 247.322755 209.93464 
L 247.932702 208.032637 
L 248.542649 209.80484 
L 249.152596 209.938117 
L 249.762543 212.112567 
L 250.37249 209.929426 
L 250.982438 211.653769 
L 251.592385 211.649859 
L 252.202332 212.116603 
L 252.812279 214.14281 
L 253.422226 214.131223 
L 254.032173 214.409507 
L 254.642121 214.139333 
L 255.862015 214.139333 
L 256.471962 216.484859 
L 257.081909 216.810912 
L 257.691856 216.849918 
L 258.301804 217.152945 
L 258.911751 216.805348 
L 259.521698 220.06674 
L 260.131645 216.802567 
L 260.741592 216.520276 
L 261.351539 220.065002 
L 261.961487 214.115018 
L 262.571434 220.136437 
L 263.181381 219.667234 
L 263.791328 220.04416 
L 264.401275 223.731963 
L 265.011222 223.743136 
L 265.62117 224.27578 
L 266.231117 224.271144 
L 266.841064 223.72973 
L 267.451011 220.080653 
L 268.060958 229.404739 
L 268.670905 224.271144 
L 269.8908 224.252616 
L 270.500747 223.743136 
L 271.110694 224.82616 
L 271.720641 224.268827 
L 272.330588 230.217103 
L 272.940536 224.26651 
L 273.550483 230.130344 
L 274.16043 224.82616 
L 274.770377 230.409804 
L 275.380324 220.035485 
L 275.990271 230.213623 
L 277.820113 230.196234 
L 278.43006 240.336157 
L 279.040007 241.999006 
L 279.649954 240.343113 
L 280.259902 230.213623 
L 281.479796 230.206665 
L 282.089743 240.315308 
L 282.69969 224.174132 
L 283.309637 240.350073 
L 288.799162 240.329204 
L 292.458845 240.426849 
M 296.118528 240.273698 
L 296.728475 240.350073 
L 297.338422 240.343113 
M 307.097577 240.322254 
L 307.707524 240.350073 
M 316.246784 240.315308 
L 316.856732 240.343113 
L 317.466679 240.336157 
L 318.076626 241.247212 
M 327.225833 239.643451 
L 327.835781 240.624117 
M 372.971871 240.315308 
" style="fill:none;stroke:#ff7f0e;stroke-linecap:square;stroke-width:1.5;"/>
   </g>
   <g id="patch_3">
    <path d="M 54 252 
L 54 34.56 
" style="fill:none;stroke:#000000;stroke-linecap:square;stroke-linejoin:miter;stroke-width:0.8;"/>
   </g>
   <g id="patch_4">
    <path d="M 388.8 252 
L 388.8 34.56 
" style="fill:none;stroke:#000000;stroke-linecap:square;stroke-linejoin:miter;stroke-width:0.8;"/>
   </g>
   <g id="patch_5">
    <path d="M 54 252 
L 388.8 252 
" style="fill:none;stroke:#000000;stroke-linecap:square;stroke-linejoin:miter;stroke-width:0.8;"/>
   </g>
   <g id="patch_6">
    <path d="M 54 34.56 
L 388.8 34.56 
" style="fill:none;stroke:#000000;stroke-linecap:square;stroke-linejoin:miter;stroke-width:0.8;"/>
   </g>
  </g>
 </g>
 <defs>
  <clipPath id="p423237a792">
   <rect height="217.44" width="334.8" x="54" y="34.56"/>
  </clipPath>
 </defs>
</svg>
